<?xml version="1.0" encoding="UTF-8"?><svg xmlns="http://www.w3.org/2000/svg" viewBox="0 0 300.09 91.67"><g id="a"/><g id="b"><g id="c"><g><path d="M20.7,91.63c-.25,0-.49-.4-.73-.4s-.49,0-.73-.01-.49,.03-.73,0-.5,.03-.74,0-.48-.15-.72-.18-.41-.56-.64-.6-.49,.05-.73,0-.53,.2-.77,.15-.44-.25-.67-.31-.6,.34-.83,.27-.22-.91-.45-.98-.46-.11-.69-.2-.76,.59-.98,.5-.4-.34-.61-.44-.19-.72-.4-.83-.7,.28-.91,.17-.42-.27-.62-.4-.16-.64-.36-.78-.81,.3-1,.15-.27-.47-.46-.62,.02-.78-.17-.94-.67,.03-.85-.14c-.18-.17,.09-.78-.08-.95s-1.04,.31-1.2,.13-.33-.39-.48-.57-.04-.61-.18-.8,.18-.72,.04-.92-.74-.08-.87-.28,.11-.63-.01-.84-.78-.13-.89-.35-.27-.43-.37-.65-.17-.47-.26-.69,.34-.65,.26-.88-.01-.49-.09-.73-.4-.38-.46-.61,.13-.52,.07-.76-.88-.31-.93-.55-.18-.47-.22-.72,.01-.51-.02-.75,.13-.51,.11-.76,.4-.51,.38-.76-.58-.46-.59-.71,.77-.5,.77-.74S0,71.7,0,71.46s.25-.48,.26-.71,.3-.46,.31-.7,.42-.44,.44-.67-.25-.5-.22-.73,.11-.46,.15-.69,.3-.42,.34-.65-.8-.65-.75-.88,.77-.31,.83-.54,.12-.45,.19-.68-.21-.56-.14-.79-.12-.56-.04-.78,.95-.14,1.04-.36-.49-.73-.39-.94,.39-.35,.5-.56,.53-.26,.64-.46-.09-.6,.03-.8,.54-.22,.67-.42,0-.57,.14-.76,.03-.59,.17-.77,.39-.32,.54-.5,.88,.15,1.04-.02c.16-.17-.02-.67,.15-.84s.35-.32,.53-.49,.43-.23,.62-.38,.34-.33,.53-.48,.13-.63,.33-.77,.58-.02,.78-.15,.31-.41,.51-.54,.33-.41,.53-.53,.44-.21,.65-.32,.54,0,.76-.1,.31-.47,.53-.57,.67,.33,.89,.24,.28-.58,.51-.67,.56,.13,.79,.05,.55,.16,.78,.09,.36-.43,.58-.5,.48-.05,.71-.12,.32-.68,.55-.74,.62,.56,.86,.51,.34-.68,.58-.73,.46-.18,.7-.23,.59,.59,.83,.55,.42-.47,.66-.51c.36-.05,.41,.35,.77,.3s.32-.3,.68-.34,.35-.06,.71-.11,.35-.07,.71-.12,.41,.31,.76,.26,.28-.6,.64-.65,.35-.08,.71-.13,.41,.31,.76,.26,.37,.02,.73-.03,.31-.41,.67-.45,.36-.03,.72-.08,.43,.49,.79,.44,.29-.53,.65-.57,.3-.45,.66-.5,.49,.92,.85,.87,.33-.28,.69-.33c.24-.03,.44-.28,.67-.32s.49,.05,.72,.01,.49,.01,.72-.03,.31-.82,.53-.87,.51,.14,.73,.09,.42-.22,.65-.28,.43-.18,.65-.25,.61,.35,.83,.28,.4-.3,.61-.38,.49-.06,.7-.15,.35-.37,.56-.47c.23-.11,.62,.02,.82-.13s.27-.48,.44-.67c.16-.18,.28-.41,.41-.63,.13-.21,.5-.31,.61-.55,.09-.2-.25-.58-.19-.78s-.16-.47-.11-.68,.45-.34,.48-.56-.3-.43-.3-.65,.12-.41,.09-.63c-.03-.26,.29-.57,.23-.82s-.08-.54-.17-.77-.45-.36-.57-.59-.21-.47-.37-.67-.17-.54-.36-.72-.28-.51-.48-.67-.66,.03-.88-.12c-.2-.13-.56,.04-.78-.08s-.15-.81-.38-.91-.42-.32-.66-.4-.73,.69-.97,.62-.38-.42-.62-.47-.39-.53-.63-.57-.54,.24-.79,.2-.5,.12-.75,.09-.44-.49-.69-.51-.49-.01-.74-.02-.49-.23-.74-.24-.5,.51-.75,.51c-.23,0-.48-.59-.71-.58s-.41,.97-.64,.99-.52-.57-.74-.54-.37,.64-.6,.68-.6-.68-.82-.63-.42,.3-.63,.36-.3,.55-.52,.63-.36,.27-.57,.36-.4,.15-.61,.26-.45,.09-.64,.21-.73-.26-.91-.12,.14,.9-.03,1.05c-.18,.15-.89-.27-1.05-.11s-.25,.43-.39,.61-.38,.32-.51,.52,.19,.66,.07,.87-.76,.14-.86,.36,.27,.62,.19,.84-.09,.45-.15,.67-.28,.4-.33,.63,.11,.48,.08,.72,.13,.46,.11,.7-.47,.33-.48,.57c-.34,.11-.33-.39-.69-.39s-.36,.15-.72,.15-.36,.49-.72,.49-.36,.25-.72,.25-.36-.52-.72-.52-.36-.07-.72-.07-.36-.05-.72-.05-.36,.38-.72,.38-.36,.28-.72,.28-.36,.02-.72,.02-.36-.43-.72-.43-.36,.12-.72,.12-.36-.01-.73-.01-.36-.41-.72-.41-.36,.39-.72,.39-.36-.56-.73-.56-.36,.59-.73,.59-.36-.53-.72-.53-.36,.78-.72,.78-.36-.09-.73-.09-.36,0-.73,0-.37,.12-.73,.12-.51,.08-.86-.04c.01-.25-.05-.88-.04-1.13s.38-.46,.4-.7-.47-.54-.44-.78-.04-.51,0-.75,.9-.37,.93-.6-.04-.5,0-.73-.6-.62-.55-.85,.09-.49,.15-.73,.26-.45,.32-.68,.23-.45,.3-.68,.1-.49,.17-.72,.52-.34,.61-.56-.24-.61-.15-.84,.15-.48,.25-.7,.28-.42,.39-.64,.6-.24,.71-.46,.52-.25,.64-.46-.49-.86-.36-1.06,.49-.27,.62-.47,.08-.55,.23-.74,.63-.13,.78-.32,.31-.37,.47-.55,.07-.59,.24-.77,.39-.3,.57-.47,.34-.35,.52-.52,.71,.07,.89-.08,.14-.58,.33-.73c.19-.15,.46-.19,.66-.33s.15-.64,.35-.77,.5-.13,.71-.26,.59,.04,.8-.09,.19-.65,.41-.77,.49-.12,.71-.23,.48-.14,.7-.24,.58,.11,.8,.02,.44-.18,.67-.27,.42-.24,.65-.32,.26-.72,.5-.8,.68,.52,.91,.45,.42-.27,.66-.34,.37-.49,.6-.55,.51,.04,.75-.01,.53,.15,.77,.1,.48-.05,.72-.1,.37-.64,.61-.68,.56,.41,.81,.37,.41-.54,.65-.58,.57,.6,.82,.57,.44-.35,.69-.38,.46-.24,.7-.27,.49,.09,.74,.07,.44-.6,.69-.62,.54,.82,.79,.8,.46-.6,.7-.62,.49,.12,.74,.11,.48-.33,.73-.34,.49-.06,.74-.06,.5,.43,.75,.43,.49,.11,.73,.11,.5-.3,.74-.29,.49-.03,.74-.02,.47,.38,.72,.39,.47,.34,.71,.35,.5-.16,.74-.14,.5-.15,.74-.13,.47,.15,.71,.18,.49,0,.73,.03,.48,.08,.72,.12,.41,.45,.65,.49,.64-.77,.87-.73,.34,.76,.58,.81,.54-.17,.77-.11,.57-.24,.8-.18,.44,.27,.67,.33,.3,.71,.53,.78,.42,.25,.65,.32,.5,0,.73,.09,.39,.31,.61,.4,.6-.2,.82-.1,.46,.17,.68,.27,.35,.39,.56,.5,.7-.29,.91-.17,.22,.6,.43,.73,.69-.19,.9-.06-.09,1.02,.11,1.15,.43,.2,.63,.34c.2,.14,.66-.08,.85,.06s.04,.7,.23,.85,.55,.08,.73,.24,.34,.33,.51,.5,.5,.18,.66,.35,.09,.56,.25,.74,.1,.52,.24,.71,.38,.29,.52,.49,.24,.4,.37,.6,.39,.3,.51,.51,.88,.06,.99,.27-.13,.61-.03,.83,.06,.5,.15,.72,.4,.36,.48,.58-.31,.61-.24,.84,.16,.44,.22,.67,.14,.44,.19,.68,.62,.36,.66,.6,.1,.48,.13,.72-.12,.5-.09,.74,.2,.47,.22,.71,.23,.48,.23,.72-.33,.49-.33,.73c0,.36-.54,.36-.54,.72s.43,.36,.43,.72-.15,.36-.15,.72,.58,.36,.58,.72-.3,.36-.3,.72-.06,.36-.06,.72-.54,.36-.54,.72,.56,.36,.56,.72,.23,.36,.23,.72-.71,.36-.71,.72,.68,.36,.68,.72-.63,.36-.63,.72,.28,.36,.28,.72,.39,.36,.39,.72-.05,.36-.05,.72-.63,.36-.63,.72,.32,.36,.32,.72,.13,.36,.13,.72-.26,.36-.26,.72,.34,.36,.34,.72-.6,.36-.6,.72,.01,.36,.01,.72,.3,.36,.3,.72,.31,.36,.31,.72-.55,.36-.55,.72,.5,.36,.5,.72-.65,.36-.65,.72,.39,.36,.39,.72-.08,.36-.08,.72-.05,.36-.05,.72,0,.36,0,.72,.36,.36,.36,.72,.11,.36,.11,.72,.1,.36,.1,.72-.64,.36-.64,.72-.07,.36-.07,.72,.59,.36,.59,.73-.14,.36-.14,.72,.12,.36,.12,.72-.44,.36-.44,.72,.12,.36,.12,.73,.39,.36,.39,.72-.42,.36-.42,.72-.22,.36-.22,.73,.33,.36,.33,.73,.27,.36,.27,.73-.58,.36-.58,.72,.68,.36,.68,.73-.31,.36-.31,.73-.33,.37-.33,.73,.66,.37,.66,.73c0,.24-.28,.47-.28,.7,0,.24,.01,.47,.02,.7,0,.24-.57,.5-.56,.73,.01,.24,.1,.48,.12,.7,.02,.24,.51,.44,.54,.66,.03,.24-.03,.48,0,.7,.03,.24-.21,.53-.17,.74,.05,.24,.66,.34,.72,.55,.07,.24-.4,.65-.32,.84,.09,.21,.84,.09,.96,.29s-.08,.58,.07,.76,.17,.48,.34,.64,.61-.04,.8,.1,.3,.33,.51,.45c.19,.11,.34,.34,.55,.44,.02,.02-.5,.07-.5,.1,0,.39,0,.39,0,.79s.69,.39,.69,.79,.33,.75,.07,1.04c-.24,.27-.64-.28-1-.28s-.36-.01-.72-.01-.36,.22-.72,.22-.36-.32-.72-.32-.36,.19-.72,.19-.36-.11-.72-.11-.36,.4-.72,.4-.36-.36-.72-.36-.36-.2-.72-.2-.36,.27-.72,.27-.36,.04-.72,.04-.36-.02-.73-.02-.36,.06-.73,.06-.36-.53-.72-.53-.36,.54-.72,.54-.36-.21-.72-.21-.36-.13-.72-.13-.36,.34-.72,.34-.36-.39-.72-.39-.36,.52-.72,.52-.36-.58-.72-.58-.36-.07-.72-.07-.36,.22-.72,.22-.36-.14-.72-.14-.36,.52-.73,.52-.38-.05-.74-.08c-.03,0,.49-.3,.49-.33-.07-.23-.18-.47-.24-.71s-.63-.33-.69-.56,.07-.52,.02-.75,.09-.52,.04-.75-.62-.36-.66-.6,.52-.59,.48-.83-.68-.37-.72-.61,.53-.57,.5-.81-1-.35-1.03-.58,.01-.5-.01-.74,0-.44-.03-.68c-.02-.07,.23-.68,.17-.67-.16,.19-.42,.62-.58,.8s-.21,.46-.38,.64,.12,.79-.05,.97-.66,.04-.83,.21-.13,.58-.31,.74-.75-.1-.93,.06-.32,.37-.51,.52-.06,.7-.25,.85-.54,.11-.73,.26-.2,.57-.4,.71-.9-.46-1.11-.32-.37,.3-.58,.43-.08,.81-.29,.93-.67-.21-.89-.09-.16,.75-.37,.86-.57-.04-.79,.07-.33,.46-.55,.56-.69-.38-.91-.29-.19,.86-.42,.95-.68-.46-.91-.38-.5-.01-.74,.06-.41,.3-.64,.37-.4,.38-.64,.44-.46,.18-.7,.23-.57-.4-.81-.36-.42,.38-.66,.42-.47,.11-.71,.14-.5-.11-.74-.08-.49-.11-.74-.09-.44,.59-.68,.61-.48,.13-.73,.14-.5-.41-.75-.41-.48,.63-.73,.63Zm20.45-26.47c0-.34,.4-.34,.4-.69s-.01-.34-.01-.69-.05-.34-.05-.69-.07-.34-.07-.69,.1-.34,.1-.69,.5-.34,.5-.69-.13-.34-.13-.69-.3-.34-.3-.69,.14-.34,.14-.69-.48-.35-.48-.69,.89-.51,.78-.84c-.2,.11-1.02,0-1.23,.12s-.06,.95-.28,1.05-.5,.06-.72,.15-.64-.35-.87-.26-.24,.71-.46,.79-.46,.13-.68,.2-.58-.29-.81-.23-.26,.81-.49,.87-.51-.08-.75-.02-.6-.48-.83-.42-.35,.56-.59,.61-.58-.51-.82-.46c-.35,.07-.18,1.01-.53,1.08s-.36,.05-.72,.12-.42-.28-.78-.22-.46-.5-.82-.43-.25,.63-.6,.7-.44-.35-.79-.28-.24,.67-.6,.74-.35,.11-.71,.18-.37,.03-.72,.1c-.23,.04-.57-.46-.8-.41s-.51-.04-.73,.01-.39,.38-.61,.45-.54-.1-.75-.03-.17,.9-.38,.98-.38,.25-.59,.35-.44,.11-.64,.21-.49,.05-.68,.17-.64-.12-.82,.01-.04,.72-.21,.86-.88-.28-1.04-.12,.29,.94,.14,1.11-.47,.2-.61,.39-.49,.24-.61,.44-.58,.26-.68,.47,.08,.57,0,.8-.2,.45-.25,.68-.33,.44-.37,.68,.84,.57,.82,.81-.71,.43-.71,.67c0,.25,0,.51,.02,.76s.39,.47,.42,.71,.35,.43,.4,.67-.72,.68-.65,.91,.84,.26,.92,.49-.02,.52,.09,.75-.08,.62,.05,.83,.58,.21,.73,.4,.05,.61,.22,.79c.17,.18,.56,.12,.75,.27s.55,.02,.75,.16,.32,.32,.53,.44,.11,.9,.34,1,.62-.28,.86-.2,.45,.14,.69,.19,.45,.21,.7,.24,.48,.02,.73,.03,.48-.39,.73-.39,.48,.31,.72,.31,.47-.2,.7-.21,.45-.21,.69-.23,.47-.01,.7-.05,.5,.18,.74,.14,.41-.37,.64-.41,.59,.45,.82,.39,.34-.54,.57-.61,.55,.16,.77,.08,.58,.15,.8,.06,.33-.47,.55-.57,.47-.13,.69-.24,.14-.73,.35-.85,.77,.35,.97,.22,.07-.75,.27-.89,.32-.34,.51-.49,.8,.24,.98,.08,.1-.61,.27-.78,.63-.04,.79-.21,.16-.52,.32-.7,.31-.36,.47-.55c.15-.18,.29-.4,.43-.62,.13-.2,.58-.26,.7-.49,.11-.21-.29-.68-.19-.92,.09-.22,.15-.46,.24-.71,.08-.23,.5-.36,.57-.61,.07-.24,.21-.46,.27-.7s-.23-.56-.19-.8,.11-.47,.15-.71,.61-.42,.64-.67-.43-.54-.42-.78-.33-.49-.33-.73Z"/><path d="M65.13,.19c.25-.26,.67,.27,1.03,.27s.36-.01,.72-.01,.36-.05,.72-.05,.36-.07,.72-.07,.36,.1,.72,.1,.36,.5,.72,.5,.36-.13,.72-.13,.36-.3,.72-.3,.36,.14,.72,.14,.36-.48,.72-.48,.36,.8,.73,.8,.36-.05,.73-.05,.36-.82,.72-.82,.36,.15,.73,.15,.36,.56,.72,.56,.36-.58,.72-.58,.36,.03,.73,.03,.36,.46,.73,.46,.36-.7,.73-.7,.36,.21,.72,.21,.36,.61,.73,.61,.36-.46,.73-.46,.37,.62,.73,.62,.81-1.08,1.07-.82,.13,.7,.13,1.06-.36,.36-.36,.72-.57,.36-.57,.72,.57,.36,.57,.72-.42,.36-.42,.72,.61,.36,.61,.72,.05,.36,.05,.72-.04,.36-.04,.72-.56,.36-.56,.72-.15,.36-.15,.72,.27,.36,.27,.72-.26,.36-.26,.72,.79,.36,.79,.72,.09,.36,.09,.72-.09,.36-.09,.72-.19,.36-.19,.72-.44,.36-.44,.72,.56,.36,.56,.72-.78,.36-.78,.72,.87,.36,.87,.72-.23,.36-.23,.72-.27,.36-.27,.72-.38,.36-.38,.72,.3,.36,.3,.72-.05,.36-.05,.72-.23,.36-.23,.72,.91,.36,.91,.72-.68,.36-.68,.72,0,.36,0,.72,.36,.36,.36,.72,.29,.36,.29,.72-.84,.36-.84,.72,.73,.36,.73,.72-.21,.36-.21,.72-.35,.36-.35,.72,.38,.36,.38,.72-.34,.36-.34,.73,.32,.36,.32,.72,.33,.36,.33,.72-.1,.36-.1,.72-.76,.36-.76,.73,.48,.36,.48,.73-.02,.36-.02,.73-.39,.58-.09,.78c.25,.17,.24-.28,.42-.52,.14-.2-.05-.64,.1-.84s.55-.2,.7-.39,.17-.5,.32-.68,.18-.5,.34-.68,.36-.35,.52-.53,.52-.19,.69-.36,.15-.56,.33-.72,.75,.08,.93-.08,.08-.65,.27-.81,.58-.07,.77-.22,.58-.03,.78-.17,.21-.53,.41-.67,.45-.2,.65-.33,.11-.75,.32-.88,.76,.36,.98,.24,.16-.75,.38-.86,.41-.3,.63-.4,.72,.43,.94,.34,.3-.55,.53-.64,.59,.22,.82,.14,.38-.38,.62-.45,.46-.14,.7-.2,.47-.13,.71-.18,.54,.26,.78,.22,.38-.63,.62-.67,.48-.1,.73-.13,.52,.3,.76,.28,.48,.04,.73,.02,.47-.38,.71-.39,.49,0,.74,0,.47,.55,.71,.55,.49-.47,.73-.46,.51-.38,.75-.36,.4,1.01,.64,1.03,.5-.19,.73-.16,.5-.16,.74-.13,.45,.2,.69,.24,.45,.18,.68,.23,.63-.63,.86-.58,.42,.36,.65,.42,.5,.02,.73,.08,.49,.09,.71,.16,.29,.65,.52,.72,.5,.02,.72,.11,.4,.3,.62,.39,.52,.01,.73,.11,.3,.49,.51,.59,.51,.04,.72,.16,.44,.19,.65,.31,.26,.48,.47,.61,.65-.14,.85,0,.57,.03,.76,.17,.17,.59,.37,.73,.59,.03,.78,.18,.3,.4,.48,.56,.12,.6,.3,.76,.3,.37,.48,.53,.53,.14,.7,.31,.29,.38,.46,.56,.17,.49,.33,.67,.18,.47,.34,.65,.63,.09,.78,.28,.56,.18,.71,.37-.23,.79-.09,.98,.17,.46,.31,.66,1.01-.11,1.14,.09,.02,.57,.15,.78-.11,.63,.02,.84,.53,.25,.65,.46,.4,.33,.52,.54-.16,.63-.05,.85,.24,.42,.34,.63,.01,.52,.12,.74,.68,.22,.77,.45-.36,.67-.27,.89,1.06,.1,1.15,.33-.4,.67-.32,.89,.71,.27,.79,.5-.59,.7-.52,.93,.33,.4,.4,.63,.56,.34,.62,.58,.25,.44,.31,.67,.09,.48,.14,.72-.03,.51,.02,.74-.5,.59-.46,.83,.88,.33,.92,.57-.71,.61-.67,.85,.18,.46,.22,.7-.04,.49,0,.73,.57,.42,.6,.66-.55,.54-.53,.78,.54,.44,.56,.68,.1,.48,.11,.72-.14,.49-.13,.73,.23,.47,.24,.72,.21,.48,.22,.73-.49,.5-.49,.74-.38,.49-.38,.73,.15,.48,.15,.72,.48,.49,.48,.73,.24,.5,.23,.74-.53,.47-.54,.71-.1,.48-.11,.72-.08,.48-.1,.72,.34,.51,.33,.75,.23,.51,.21,.75-.03,.49-.06,.73-.48,.43-.51,.67,.06,.5,.03,.74-.08,.48-.12,.72-.47,.41-.51,.65,.3,.54,.26,.78-.64,.37-.69,.6,.48,.59,.43,.83-.62,.35-.67,.59,.65,.65,.59,.89-.21,.45-.27,.68-.14,.47-.21,.7-.02,.5-.09,.73-.17,.46-.24,.69-.34,.4-.42,.63-.49,.34-.57,.56,.31,.64,.22,.86-.1,.49-.19,.71-.96,.11-1.06,.33-.08,.48-.19,.7,.43,.74,.32,.96-.21,.44-.32,.66-.36,.36-.47,.57-.32,.38-.45,.58-.2,.44-.33,.65-.58,.2-.71,.41,.1,.64-.03,.84-.24,.43-.38,.62-.35,.35-.5,.54-.63,.12-.78,.31-.56,.17-.71,.35,.35,.92,.19,1.11-.52,.2-.68,.38-.15,.53-.32,.7-.64,.06-.81,.23-.35,.34-.53,.5-.13,.58-.31,.74-.42,.27-.61,.42-.37,.33-.56,.48-.7-.12-.9,.03-.18,.57-.38,.71-.48,.16-.68,.29-.18,.63-.39,.75-.51,.11-.72,.23-.59-.06-.8,.05-.22,.64-.44,.75-.5,.1-.72,.2-.48,.11-.71,.21-.57-.14-.8-.06-.45,.15-.68,.23-.43,.22-.66,.29-.3,.7-.54,.76-.64-.56-.88-.5-.43,.24-.67,.29-.4,.46-.64,.5-.51-.09-.75-.05-.51-.2-.75-.17-.48,0-.72,.03-.43,.6-.68,.62-.51-.47-.76-.46-.47,.49-.71,.5-.49-.66-.73-.66-.48,.29-.71,.28-.48,.18-.72,.16-.47-.16-.71-.18-.54,.52-.77,.5-.37-.9-.61-.93-.56,.5-.79,.46-.45-.22-.68-.27-.54,.21-.78,.16-.49-.06-.72-.13-.35-.55-.58-.62-.42-.25-.65-.32-.56,.13-.78,.05-.47-.14-.69-.23-.3-.51-.52-.61-.29-.48-.5-.58-.51-.04-.72-.15-.51-.06-.72-.18-.35-.33-.56-.46-.43-.2-.63-.34-.38-.28-.57-.42-.15-.58-.33-.73-.92,.39-1.11,.23,.07-.82-.11-.98-.54-.11-.71-.27-.6-.07-.77-.24-.24-.44-.41-.62,.11-.75-.05-.93-.23-.42-.38-.6-.42-.26-.58-.44-.17-.46-.31-.65c-.18-.24-.51,0-.69-.24s-.16-.63-.42-.47c-.3,.18-.22,.37-.22,.72s.58,.35,.58,.71-.42,.35-.42,.7,.52,.35,.52,.7-.9,.35-.9,.71,.08,.35,.08,.71,.46,.35,.46,.71-.52,.35-.52,.7,.3,.35,.3,.71,0,.35,0,.71,.23,.36,.23,.71,0,.3-.25,.55-.19-.33-.55-.33-.35,.12-.71,.12-.35-.03-.71-.03-.35,.16-.71,.16-.35,.73-.71,.73-.35-.39-.7-.39-.35-.15-.7-.15-.35,.24-.7,.24-.35-.5-.71-.5-.35,.02-.71,.02-.35,.03-.71,.03-.35,.53-.71,.53-.35,.02-.71,.02-.36-.18-.71-.18-.35,.16-.71,.16-.35,.2-.71,.2-.36-.34-.71-.34-.36-.54-.71-.54-.35,.43-.71,.43-.35-.15-.71-.15-.36,.58-.71,.58-.36-.3-.71-.3-.36-.06-.72-.06-.15-.16-.41-.41-.44-.05-.44-.41-.23-.36-.23-.72,.71-.36,.71-.72-.68-.36-.68-.72,.63-.36,.63-.72-.28-.36-.28-.72-.39-.36-.39-.72,.05-.36,.05-.72,.63-.36,.63-.72-.32-.36-.32-.72-.13-.36-.13-.72,.26-.36,.26-.72-.34-.36-.34-.72,.6-.36,.6-.72-.01-.36-.01-.72-.3-.36-.3-.72-.31-.36-.31-.72,.55-.36,.55-.72-.5-.36-.5-.72,.65-.36,.65-.72-.39-.36-.39-.72,.08-.36,.08-.72,.05-.36,.05-.72,0-.36,0-.72-.36-.36-.36-.72-.11-.36-.11-.72-.1-.36-.1-.72,.64-.36,.64-.72,.07-.36,.07-.72-.59-.36-.59-.72,.14-.36,.14-.72-.12-.36-.12-.72,.44-.36,.44-.72-.12-.36-.12-.72-.39-.36-.39-.72,.42-.36,.42-.72,.22-.36,.22-.72-.33-.36-.33-.72-.27-.36-.27-.72,.58-.36,.58-.72-.68-.36-.68-.72,.31-.36,.31-.72,.33-.36,.33-.72-.66-.36-.66-.72,.28-.36,.28-.72,0-.36,0-.72,.59-.36,.59-.72-.08-.36-.08-.72-.48-.36-.48-.72,.08-.36,.08-.72,.29-.36,.29-.72-.57-.36-.57-.72,.57-.36,.57-.72-.73-.36-.73-.72,.38-.36,.38-.72,.19-.36,.19-.72-.43-.36-.43-.72,.1-.36,.1-.72,.13-.36,.13-.72,.52-.36,.52-.71,0-.36,0-.71-.69-.36-.69-.71-.17-.36-.17-.71,.41-.36,.41-.72,.01-.36,.01-.72-.22-.36-.22-.72,.32-.36,.32-.72-.19-.36-.19-.72,.11-.36,.11-.72-.4-.36-.4-.72,.36-.36,.36-.72,.2-.36,.2-.72-.27-.36-.27-.72-.04-.36-.04-.71,.02-.36,.02-.71-.06-.36-.06-.71,.53-.36,.53-.71-.54-.36-.54-.71,.21-.36,.21-.72,.13-.36,.13-.72-.34-.36-.34-.72,.39-.36,.39-.72-.52-.36-.52-.72,.58-.36,.58-.72,.07-.36,.07-.72-.22-.36-.22-.72,.14-.36,.14-.72-.52-.36-.52-.72,.08-.36,.08-.72,.65-.36,.65-.72-.05-.36-.05-.72-.53-.36-.53-.72,.2-.36,.2-.72,.21-.36,.21-.72-.53-.36-.53-.72,.63-.36,.63-.72-.6-.36-.6-.72,.62-.36,.62-.72-.94-.36-.94-.72,.08-.36,.08-.72,.04-.36,.04-.72,.86-.36,.86-.72-.16-.36-.16-.72-.15-.36-.15-.72-.63-.36-.63-.72,.44-.36,.44-.72-.32-.36-.32-.72,.58-.36,.58-.72-.07-.36-.07-.72-.5-.36-.5-.72,.24-.36,.24-.72-.34-.36-.34-.72,.89-.36,.89-.72-.05-.36-.05-.72-.65-.36-.65-.72,.52-.36,.52-.72-.59-.36-.59-.72,.29-.36,.29-.72-.28-.36-.28-.72,.62-.36,.62-.72-.74-.36-.74-.73,.66-.36,.66-.73,.27-.53,.14-.87c-.2-.53-.95-.63-.69-.89Zm31.61,76.28c.24,0,.47,.39,.7,.38s.47-.04,.7-.06,.46-.09,.69-.12,.45-.13,.68-.17,.47,0,.7-.04,.59,.37,.81,.31,.43-.26,.65-.33,.35-.44,.56-.53,.49-.05,.7-.15,.2-.63,.41-.74,.81,.47,1.01,.34,.39-.3,.58-.44-.11-.93,.07-1.08,.45-.16,.62-.32,.73,.1,.9-.07-.09-.73,.07-.91,.32-.32,.47-.5,.65-.08,.79-.27c.15-.19-.29-.8-.15-1s.43-.28,.56-.48,.78-.11,.9-.32-.18-.65-.07-.87,.78-.17,.88-.4-.69-.82-.6-1.05,.18-.43,.27-.66,.5-.33,.57-.56,.69-.3,.76-.53-.42-.62-.36-.86,.53-.37,.58-.61-.5-.6-.45-.84,.04-.48,.08-.72,.11-.46,.15-.7,.62-.41,.65-.65,.21-.47,.23-.72-.22-.51-.21-.76,.29-.47,.3-.72-.77-.52-.76-.77-.08-.48-.07-.73,.1-.49,.1-.74,.19-.47,.18-.71,.43-.49,.42-.72-.58-.45-.59-.69,.75-.52,.74-.76-.9-.41-.92-.64,.19-.49,.16-.72,.21-.5,.18-.74,.31-.53,.28-.76-.38-.43-.42-.66-.04-.48-.09-.72,.12-.52,.07-.75-.99-.24-1.05-.47,.53-.64,.47-.87-.14-.46-.21-.68-.49-.33-.57-.55-.44-.33-.53-.54,.59-.77,.49-.98-.86-.12-.97-.33-.03-.51-.14-.71,.07-.59-.05-.79-.57-.2-.7-.39,.01-.58-.13-.77c-.14-.19-.54-.18-.68-.37s-.54-.14-.7-.31-.23-.4-.39-.57,.19-.88,.02-1.04-.67,.04-.85-.1-.36-.3-.55-.44-.32-.37-.51-.49-.42-.22-.62-.33-.59,.15-.8,.05-.28-.48-.5-.57-.49,0-.71-.08-.48,.03-.71-.04-.42-.15-.65-.2-.39-.35-.62-.39-.49,.21-.72,.18-.4-.62-.63-.64-.49,.4-.73,.39-.45-.33-.69-.33-.49-.33-.72-.32-.46,.33-.7,.35-.49-.03-.72,0-.37,.64-.6,.68-.6-.59-.83-.53-.3,.68-.53,.75-.4,.22-.62,.3-.69-.47-.9-.38-.27,.56-.48,.66-.61-.13-.82-.02-.28,.46-.48,.59-.38,.27-.57,.41-.36,.3-.54,.45-.6,.04-.78,.2,.05,.72-.11,.9-.29,.35-.45,.53-.58,.13-.72,.32-.35,.33-.49,.53c-.14,.2,.02,.6-.11,.81s-.27,.39-.4,.6-.72,.16-.83,.38,.2,.65,.09,.87,.16,.6,.06,.82-1.09,.07-1.18,.3,.04,.55-.04,.78,.05,.53-.03,.76-.27,.43-.33,.66-.23,.45-.29,.68,.61,.64,.55,.88-.35,.41-.4,.65,.02,.49-.03,.73-.03,.48-.06,.72-.59,.4-.62,.64,.09,.5,.06,.74-.18,.47-.2,.72,.15,.5,.13,.75-.35,.47-.36,.71,.17,.5,.16,.74,.02,.49,.02,.73-.29,.49-.29,.74,.46,.48,.46,.71,.3,.46,.3,.7-.36,.49-.35,.72,.36,.45,.38,.68-.09,.48-.07,.71-.33,.51-.3,.75-.01,.48,.02,.72,.33,.43,.37,.66,.02,.48,.07,.71-.11,.51-.05,.74-.06,.52,0,.74,.53,.35,.6,.58,.45,.35,.52,.57-.47,.67-.39,.89,.05,.5,.15,.72,1,.07,1.1,.29-.07,.55,.04,.76-.15,.63-.04,.83,.52,.24,.65,.44,.41,.29,.54,.48-.08,.64,.06,.83c.15,.2,.33,.38,.48,.56s.17,.52,.34,.7,.72-.01,.89,.15-.03,.78,.16,.93,.97-.44,1.16-.29,.04,.78,.24,.91,.71-.24,.92-.12,.06,.92,.28,1.03,.53,.03,.76,.13,.6-.24,.84-.16,.48,.02,.72,.09,.44,.15,.68,.2,.43,.23,.67,.28,.39,.68,.63,.72,.56-.74,.81-.72,.43,.84,.68,.85,.5-.73,.75-.73Z"/><path d="M138.72,82.24c-.17-.17-.05-.62-.22-.8s-.34-.34-.5-.52-.36-.33-.51-.51-.37-.32-.52-.51-.23-.44-.37-.63,.11-.68-.03-.87-.38-.31-.52-.5-.52-.22-.65-.42-.14-.48-.27-.68-.67-.16-.79-.36,.45-.81,.34-1.02-.27-.39-.38-.6-.95-.05-1.06-.26-.08-.5-.18-.72,.31-.67,.21-.89-.72-.21-.82-.43-.16-.46-.25-.68,.26-.61,.17-.83-.83-.22-.9-.45,.04-.53-.03-.76,.44-.63,.38-.86-.58-.33-.64-.56,.48-.62,.42-.85-1.05-.24-1.1-.47-.09-.48-.14-.71,.25-.54,.21-.78,.48-.57,.43-.81-.64-.38-.68-.62,.35-.53,.32-.77-.67-.39-.7-.63-.1-.47-.13-.71-.01-.48-.03-.72,.52-.52,.5-.76,.12-.48,.11-.72-.29-.46-.3-.7,.24-.48,.23-.73-.8-.46-.81-.7-.1-.49-.1-.73,.09-.48,.09-.72,.2-.48,.2-.72,.45-.46,.46-.7-.54-.5-.52-.74,.81-.43,.82-.67-.83-.54-.81-.78,.27-.46,.3-.7,.32-.45,.34-.69,.43-.43,.46-.66-.24-.51-.2-.75,.12-.46,.16-.7,.3-.43,.34-.66-.8-.64-.76-.87,.77-.33,.82-.56,.11-.46,.16-.69-.24-.55-.18-.78-.16-.54-.1-.77,.94-.23,1-.45-.56-.67-.49-.9,.35-.39,.42-.62,.49-.33,.57-.55-.19-.58-.1-.8,.49-.31,.58-.53-.11-.56,0-.78-.1-.58,0-.79,.3-.39,.41-.61,.89-.08,1-.29-.2-.64-.08-.85,.25-.41,.37-.61,.35-.35,.47-.55,.22-.42,.35-.62-.08-.63,.05-.83,.53-.21,.67-.4,.14-.49,.28-.68,.15-.49,.3-.68,.33-.35,.48-.54,.5-.2,.66-.38,.11-.55,.27-.73,.74,.04,.91-.13c.17-.17,.03-.64,.19-.81s.56-.11,.73-.27,.57-.08,.75-.24,.15-.54,.33-.7,.41-.24,.6-.39,.01-.75,.2-.9,.8,.26,.99,.12,.04-.76,.23-.9,.35-.35,.54-.48,.77,.31,.97,.18,.19-.59,.4-.71,.61,.11,.82-.01,.29-.45,.5-.56,.41-.23,.63-.34,.42-.23,.63-.33,.58,.13,.8,.04,.21-.7,.43-.79,.43-.21,.65-.3,.57,.16,.79,.08,.47-.09,.69-.17,.34-.49,.57-.56,.46-.12,.69-.19,.6,.39,.83,.33,.33-.59,.57-.64,.37-.5,.61-.56,.67,.85,.9,.81,.41-.32,.65-.37,.43-.3,.66-.34,.49,.05,.72,.02,.48,.03,.71,0,.38-.8,.62-.82,.5,.2,.74,.18,.47-.15,.71-.17,.48-.09,.72-.1,.5,.5,.74,.49,.47-.17,.71-.17,.48,.12,.72,.12,.48-.2,.72-.2,.48,.32,.71,.32,.48-.18,.72-.17,.48-.02,.72-.01,.46,.31,.7,.32,.51-.43,.74-.41,.51-.25,.75-.22,.44,.42,.68,.45,.52-.28,.76-.25,.46,.19,.7,.22,.42,.45,.65,.48,.46,.15,.69,.19,.52-.17,.75-.12,.46,.16,.69,.21,.42,.31,.65,.37,.41,.29,.64,.35,.57-.28,.8-.21,.56-.17,.78-.1,.25,.78,.48,.85,.4,.28,.62,.36,.76-.67,.98-.58,.34,.46,.56,.55,.27,.58,.48,.68,.57-.1,.78,0,.52,.04,.73,.15,.22,.61,.43,.72,.43,.2,.63,.32,.3,.41,.51,.54,.68-.2,.88-.07,.08,.75,.27,.88,.93-.52,1.13-.38,.03,.77,.23,.91,.74-.18,.93-.03-.11,.9,.07,1.05,.49,.15,.67,.3,.65-.02,.83,.14,.45,.23,.62,.39,.33,.36,.5,.52,.24,.44,.41,.61c.16,.17-.12,.76,.04,.94s.92-.18,1.08,0-.3,.88-.15,1.07,.39,.29,.53,.48,.21,.43,.35,.62,.7,.07,.84,.27-.22,.73-.09,.93,.68,.12,.81,.32,.31,.37,.44,.57,.1,.5,.22,.7,.42,.31,.53,.52,.4,.33,.51,.54-.23,.65-.12,.87-.14,.59-.04,.8,.33,.36,.43,.58,.64,.24,.73,.46,.41,.35,.5,.57-.31,.63-.23,.85,.09,.47,.17,.7,.1,.46,.17,.69,.51,.34,.57,.57,.4,.38,.46,.61,.15,.46,.2,.69-.3,.57-.24,.8,.23,.44,.28,.67,.09,.47,.13,.7-.31,.54-.27,.78,.47,.4,.51,.64-.48,.55-.45,.79,.65,.39,.68,.63-.46,.53-.44,.77,.83,.39,.85,.63-.04,.49-.02,.72,.03,.48,.04,.72,.15,.47,.17,.71,0,.48,.01,.72-.18,.49-.17,.73-.33,.48-.33,.72,.52,.48,.52,.72,.09,.49,.09,.73-.85,.46-.85,.7,.11,.48,.1,.72,.68,.52,.67,.75-.02,.49-.03,.73-.18,.48-.2,.72-.14,.48-.17,.71,0,.49-.03,.73-.44,.43-.48,.67,.36,.54,.33,.78-.03,.49-.07,.72-.17,.46-.21,.7-.51,.39-.56,.62-.43,.39-.48,.62,.72,.67,.66,.9-.37,.4-.44,.63,.11,.53,.04,.76-.54,.34-.61,.57-.15,.45-.23,.68,.16,.57,.08,.79-.24,.43-.33,.65-.16,.46-.25,.68-.67,.23-.77,.45,.13,.58,.03,.8-.33,.37-.43,.59,.16,.63,.05,.84-.38,.35-.49,.56-.53,.25-.65,.45,.15,.65,.03,.86-.36,.34-.5,.54-.34,.35-.48,.55-.55,.19-.69,.38-.29,.37-.43,.56-.23,.42-.38,.6,.15,.74,0,.93-.84-.1-1,.08-.21,.44-.38,.62-.06,.61-.23,.78-.46,.22-.63,.38-.53,.13-.7,.29-.38,.28-.56,.44,0,.73-.18,.89-.68-.08-.87,.06-.08,.67-.27,.81-.78-.26-.97-.12-.21,.51-.41,.64-.29,.42-.49,.55-.47,.14-.67,.26-.12,.73-.32,.85-.83-.51-1.04-.39-.14,.73-.35,.84-.49,.09-.7,.2-.3,.5-.51,.6-.42,.25-.64,.34-.61-.22-.83-.13-.48,.07-.7,.16-.34,.46-.56,.53-.44,.2-.67,.27-.56-.19-.78-.12-.53-.16-.76-.1-.4,.32-.63,.38-.41,.31-.64,.36-.48,0-.71,.06-.45,.16-.68,.21-.47,.07-.7,.11-.53-.3-.76-.26-.34,.94-.57,.97-.56-.6-.79-.57-.44,.33-.67,.36-.44,.41-.68,.43-.49-.1-.73-.08-.51-.56-.75-.54-.47-.08-.71-.07-.46,.18-.7,.18-.47-.14-.71-.14-.47,.42-.71,.42-.49,.03-.73,.02-.48-.21-.72-.22-.51,.56-.75,.55-.47-.44-.71-.46-.53,.49-.77,.47-.41-.94-.65-.96-.49,.04-.73,0-.54,.4-.78,.37-.41-.58-.65-.61-.52,.22-.76,.18-.48-.09-.72-.13-.52,.13-.76,.08-.41-.4-.65-.46-.41-.36-.64-.42-.49,0-.73-.07-.45-.16-.68-.23-.51,.02-.74-.05-.7,.55-.93,.47-.33-.53-.56-.62-.4-.31-.63-.4-.54,.04-.77-.06-.25-.65-.47-.75-.45-.18-.67-.28-.44-.19-.66-.3-.68,.24-.89,.13-.44-.22-.65-.34-.33-.4-.54-.53-.5-.12-.71-.25-.52-.1-.72-.24-.21-.56-.41-.7-.07-.72-.26-.86-.65,.05-.84-.1-.28-.42-.47-.57-.75,.13-.93-.03-.16-.55-.34-.72-.31-.38-.49-.55-.59-.11-.76-.28Zm36.33-10.93c.15-.18,.6-.13,.74-.32s.26-.39,.39-.59,.21-.42,.33-.63,.17-.44,.28-.65,.3-.37,.4-.59,.65-.23,.75-.45,.07-.5,.15-.72-.12-.55-.05-.77,.29-.4,.35-.63-.33-.58-.27-.81,.9-.26,.95-.49,.06-.48,.11-.72-.72-.62-.67-.86,.23-.43,.27-.67,.63-.38,.66-.62-.52-.54-.49-.77,.07-.46,.1-.7,.5-.44,.51-.68-.67-.51-.66-.75,.23-.46,.24-.7,.63-.46,.63-.7-.46-.49-.46-.73,.62-.5,.62-.74-.97-.47-.98-.71,0-.48-.01-.72,.33-.5,.31-.74,.54-.53,.52-.77-.61-.43-.64-.67,.37-.54,.34-.77-.67-.4-.71-.63-.12-.47-.16-.7-.05-.48-.1-.71,.45-.6,.4-.83,.03-.52-.03-.75-.39-.41-.46-.64,.1-.55,.02-.78-.9-.2-.99-.42-.25-.4-.35-.62-.1-.47-.2-.68-.03-.51-.14-.72,.16-.64,.04-.85-.72-.13-.85-.33,.38-.84,.24-1.04-.98,.13-1.13-.06c-.15-.19-.11-.5-.26-.68s-.11-.53-.27-.7-.08-.62-.25-.77-.56-.1-.74-.25-.34-.34-.53-.48-.27-.47-.46-.6-.87,.52-1.07,.4-.08-.83-.29-.93-.43-.21-.64-.31-.57,.15-.79,.06-.52,.12-.75,.05-.2-.94-.43-1.01-.63,.59-.86,.54-.4-.3-.64-.34-.41-.43-.64-.46-.51,.32-.75,.29-.44-.38-.67-.4-.48,.29-.72,.28-.46,.32-.7,.32-.46-.1-.69-.09-.51-.74-.74-.73-.44,.51-.67,.53-.47,.04-.7,.07-.48-.05-.71,0-.46,.13-.68,.18-.35,.51-.57,.57-.53-.18-.75-.11-.38,.32-.6,.4-.35,.33-.57,.43-.42,.16-.63,.26-.52-.01-.73,.11-.24,.48-.43,.6-.71-.21-.9-.07-.1,.62-.28,.77-.56,.06-.73,.22-.58,.09-.74,.26-.1,.56-.25,.73-.37,.31-.51,.5c-.15,.19,.18,.72,.04,.92s-.85,.01-.98,.22,.25,.71,.13,.92-.14,.45-.25,.67-.83,.13-.93,.35,.17,.6,.08,.83-.55,.3-.64,.53,.07,.54,0,.77-.14,.46-.2,.69-.11,.47-.17,.7-.47,.38-.53,.62,.44,.59,.39,.83-.06,.47-.1,.71-.43,.42-.47,.66-.14,.47-.17,.71,.3,.52,.27,.76-.07,.47-.09,.72-.58,.44-.6,.69,.45,.51,.44,.75,.38,.49,.37,.74-.99,.46-.99,.7,.23,.5,.23,.75,.22,.48,.22,.72-.12,.48-.11,.72-.08,.49-.07,.72,.77,.43,.78,.67-.22,.49-.2,.72,.15,.46,.18,.69,.1,.46,.13,.69-.45,.54-.42,.77,.22,.45,.26,.68-.04,.5,0,.73,.29,.43,.34,.66-.2,.54-.14,.77,.31,.41,.38,.64,.18,.44,.25,.67-.11,.55-.03,.77,.6,.28,.69,.49,.45,.31,.55,.52-.14,.59-.03,.8,.51,.25,.63,.45,.12,.46,.25,.66-.05,.6,.08,.79,.23,.43,.37,.61c.15,.19,.52,.22,.68,.4s.28,.41,.46,.58,.21,.5,.39,.67,.27,.47,.46,.63,.65-.03,.85,.12,.57,0,.78,.13,.09,.83,.31,.94,.39,.35,.62,.46,.8-.61,1.03-.52,.34,.45,.57,.53,.34,.57,.58,.63,.56-.19,.8-.13,.51-.08,.75-.03,.41,.52,.65,.56,.5,.04,.75,.07,.48,.26,.73,.27,.52-.49,.77-.49,.49,.6,.74,.6c.24,0,.46-.95,.69-.96s.49,.59,.73,.58,.42-.62,.65-.64,.56,.72,.79,.69,.44-.26,.67-.3,.37-.52,.6-.57,.41-.23,.63-.29,.44-.09,.66-.17,.47-.01,.69-.09,.67,.4,.88,.3,.08-.92,.29-1.02,.79,.5,.99,.38,.36-.34,.55-.47,.46-.18,.65-.32,.06-.69,.24-.84,.75,.15,.93,0,0-.68,.16-.85,.27-.37,.43-.55,.1-.5,.25-.69Z"/><path d="M219.47,64.86c0,.25-.39,.49-.39,.73s.03,.49,.04,.73,.08,.49,.11,.73,.12,.48,.15,.72-.03,.5,.01,.74-.4,.59-.35,.82,.24,.47,.3,.7,.43,.39,.51,.62,.03,.52,.12,.74,.63,.24,.74,.46-.47,.83-.34,1.03,.32,.42,.47,.61,.94-.13,1.1,.05c.16,.18,.2,.44,.38,.6s0,.75,.2,.9,.72-.19,.93-.06,.38,.26,.6,.37,.25,.62,.47,.72,.68-.49,.91-.42,.38,.33,.62,.39,.34,.71,.58,.75,.55-.38,.8-.34,.42,.67,.67,.7,.54-.92,.79-.92,.47,.03,.71,.03,.48,.35,.72,.34,.52,.55,.76,.53,.44-.61,.68-.63,.54,.36,.78,.33,.37-.68,.61-.73,.45-.14,.68-.2,.46-.08,.69-.15,.64,.39,.86,.3,.53-.04,.75-.13,.34-.45,.55-.56,.56,0,.77-.13,0-.92,.19-1.05,.32-.33,.51-.48,.41-.21,.59-.37,.47-.17,.64-.34,.65-.04,.81-.23c.16-.18-.13-.71,.02-.9s.91,.09,1.05-.11-.47-.86-.34-1.06,.43-.27,.55-.48,.46-.29,.56-.5,.55-.28,.64-.5-.1-.56-.02-.78,.2-.43,.28-.66,.36-.4,.42-.63-.76-.67-.71-.9,.77-.31,.81-.54,.09-.46,.12-.7-.29-.51-.26-.75-.24-.49-.21-.73,.88-.4,.9-.63-.7-.51-.69-.75,.23-.46,.23-.7,.36-.47,.36-.71c0-.35-.38-.35-.38-.71s.34-.35,.34-.71-.32-.35-.32-.71-.33-.35-.33-.71,.1-.35,.1-.71,.76-.35,.76-.71-.48-.35-.48-.71,.02-.36,.02-.71,.12-.36,.12-.71-.04-.36-.04-.71-.41-.36-.41-.71,.32-.36,.32-.71-.18-.36-.18-.71-.18-.36-.18-.71,.03-.36,.03-.71,.25-.36,.25-.71-.29-.36-.29-.71,.57-.36,.57-.71-.43-.36-.43-.71,.32-.36,.32-.71,.33-.36,.33-.71-.31-.36-.31-.71,.08-.36,.08-.72-.58-.36-.58-.71,.69-.36,.69-.71-.59-.36-.59-.71-.09-.36-.09-.71,.68-.36,.68-.71-.4-.36-.4-.71,.4-.36,.4-.72-.25-.36-.25-.71-.01-.36-.01-.71-.02-.36-.02-.71,.36-.35,.36-.71-.56-.35-.56-.71-.03-.36-.03-.71,.36-.36,.36-.71,.07-.36,.07-.72-.36-.36-.36-.71,.02-.36,.02-.71,.54-.36,.54-.71-.48-.36-.48-.72-.4-.36-.4-.72,.98-.36,.98-.72-.24-.36-.24-.72-.22-.36-.22-.72,.13-.36,.13-.72,.1-.36,.1-.72-.74-.36-.74-.72,.25-.36,.25-.72-.11-.36-.11-.72-.19-.74,.06-1,.64,.41,1,.41,.36-.15,.72-.15,.36,.13,.72,.13,.36-.19,.72-.19,.36,.32,.72,.32,.36-.19,.72-.19,.36-.04,.72-.04,.36,.28,.72,.28,.36-.46,.72-.46,.36-.29,.72-.29,.36,.38,.73,.38,.36-.33,.73-.33,.36,.13,.72,.13,.36,.38,.73,.38,.36,.07,.72,.07,.36-.26,.72-.26,.36,.06,.73,.06,.36,.21,.73,.21,.36,.18,.73,.18,.36-.42,.72-.42,.36-.32,.73-.32,.36,.66,.73,.66,.37,.13,.73,.13,.79-1.01,1.05-.76-.16,.69-.16,1.05-.43,.36-.43,.72,.33,.36,.33,.72,.19,.36,.19,.72-.44,.36-.44,.72,.02,.36,.02,.72-.21,.36-.21,.72,.52,.36,.52,.72-.59,.36-.59,.72,.95,.36,.95,.72-.61,.36-.61,.72,.59,.36,.59,.72-.78,.36-.78,.72,.2,.36,.2,.72,.45,.36,.45,.72,.13,.36,.13,.72-.03,.36-.03,.72-.14,.36-.14,.72-.61,.36-.61,.72,.8,.36,.8,.72-.8,.36-.8,.72,.11,.36,.11,.72-.1,.36-.1,.72,.52,.36,.52,.72-.6,.36-.6,.72,.5,.36,.5,.72,.06,.36,.06,.72-.17,.36-.17,.72,.21,.36,.21,.72,.19,.36,.19,.72-.5,.36-.5,.72-.39,.36-.39,.72,.15,.36,.15,.72,.49,.36,.49,.72,.25,.36,.25,.72-.52,.36-.52,.72-.07,.36-.07,.72-.05,.36-.05,.72,.38,.36,.38,.72,.28,.36,.28,.72,.02,.36,.02,.72-.43,.36-.43,.72,.12,.36,.12,.72-.01,.36-.01,.72-.41,.36-.41,.72,.39,.36,.39,.72-.56,.36-.56,.72,.59,.36,.59,.72-.53,.36-.53,.72,.78,.36,.78,.72-.09,.36-.09,.73,0,.36,0,.73,.12,.36,.12,.72-.02,.36-.02,.72-.19,.36-.19,.72-.34,.36-.34,.72,.51,.36,.51,.72,.09,.36,.09,.72-.84,.36-.84,.72,.12,.36,.12,.72,.7,.36,.7,.73,.01,.36,.01,.73-.15,.36-.15,.73-.1,.36-.1,.72,.05,.36,.05,.72-.39,.36-.39,.72,.44,.36,.44,.73,.05,.36,.05,.73-.09,.36-.09,.73-.43,.36-.43,.73-.34,.36-.34,.73,.86,.36,.86,.73-.26,.36-.26,.72,.24,.36,.24,.72-.42,.36-.42,.72,0,.36,0,.73,.34,.36,.34,.73-.08,.36-.08,.73,.02,.36,.02,.72-.53,.36-.53,.73,.35,.36,.35,.73-.14,.36-.14,.73,.43,.36,.43,.73-.17,.37-.17,.73-.34,.36-.34,.73,.47,.36,.47,.73-.12,.36-.12,.73-.09,.37-.09,.73-.34,.37-.34,.73,0,.37,0,.73,.39,.33,.13,.59-.23,.53-.61,.53-.37-.71-.75-.71-.37,.14-.75,.14-.37,.37-.75,.37-.37-.17-.75-.17-.37-.27-.75-.27-.37-.05-.75-.05-.37,.56-.75,.56-.38-.5-.75-.5-.38,.47-.75,.47-.38-.67-.75-.67c-.34,0-.34,.29-.69,.29s-.35,.19-.69,.19-.34-.14-.69-.14-.34,.57-.69,.57-.35-.85-.69-.85-.35,.58-.69,.58-.34-.14-.69-.14-.34,.32-.69,.32-.35,.05-.69,.05-.35-.44-.69-.44-.35-.11-.7-.11-.59,.5-.83,.25-.1-.48-.1-.84,.35-.35,.35-.7,.31-.35,.31-.7-.2-.35-.2-.71-.2-.35-.2-.7,.1-.35,.1-.7-.06-.35-.06-.71,.02-.35,.02-.7,.38-.35,.38-.7-.87-.35-.87-.7,.67-.35,.67-.71-.28-.35-.28-.71-.37-.35-.37-.71,.21-.32,.15-.66c-.1,.2-.29,.18-.4,.38s-.3,.33-.42,.52-.09,.46-.21,.64-.37,.28-.5,.46,.08,.6-.05,.78-.25,.37-.39,.55c-.15,.19-.46,.25-.61,.43s.12,.75-.04,.93-.64,.08-.81,.25,.02,.72-.15,.89-.97-.33-1.15-.16-.3,.37-.48,.53-.08,.66-.27,.81-.69-.13-.89,.02-.22,.52-.42,.65-.41,.25-.61,.38-.3,.44-.51,.56-.57-.04-.78,.07-.54-.02-.76,.08-.38,.31-.6,.4-.45,.15-.67,.24-.38,.32-.61,.4-.22,.86-.46,.93-.58-.23-.82-.16-.5-.01-.74,.04-.42,.35-.65,.4-.57-.38-.81-.34-.46,.11-.7,.15-.46,.1-.7,.13-.41,.59-.65,.61-.49,.07-.73,.09-.5-.14-.74-.13-.48,.19-.72,.2-.49,.22-.73,.22-.49-.33-.74-.33-.47-.54-.71-.55-.49,.42-.73,.41-.47-.17-.71-.19-.53,.55-.77,.52-.45-.35-.69-.38-.47-.12-.71-.15-.39-.6-.62-.64-.57,.47-.8,.43-.52,.13-.75,.08-.3-.8-.53-.86-.64,.53-.87,.46-.27-.74-.49-.81-.54,.11-.77,.03-.59,.19-.81,.1-.43-.24-.65-.33-.16-.77-.38-.87-.57,.07-.78-.05-.48-.13-.68-.25-.27-.47-.47-.6-.59,.01-.78-.13-.02-.76-.21-.91-.37-.28-.55-.43-.55-.08-.73-.24-.56-.1-.73-.27,.06-.72-.11-.9c-.16-.17-.69,0-.84-.19s.19-.78,.04-.96-.6-.12-.74-.31-.21-.43-.35-.62-.22-.41-.35-.61-.25-.39-.37-.6-.55-.23-.67-.43-.32-.37-.43-.59-.31-.39-.41-.6,.39-.69,.3-.91-.11-.45-.19-.68-.72-.24-.8-.46-.02-.49-.1-.72-.25-.42-.32-.65,.3-.57,.24-.8-.23-.43-.28-.66-.48-.38-.53-.62,.33-.54,.29-.78,.14-.49,.11-.73-.39-.42-.42-.65-.32-.44-.34-.68,.53-.52,.51-.76-.71-.42-.73-.66,.29-.49,.28-.73,.31-.48,.31-.72-.67-.47-.67-.72c0-.36,.28-.36,.28-.71s0-.36,0-.71,.59-.36,.59-.71-.08-.36-.08-.71-.48-.36-.48-.72,.08-.36,.08-.72,.29-.36,.29-.71-.57-.36-.57-.71,.57-.36,.57-.71-.73-.36-.73-.71,.38-.36,.38-.71,.19-.36,.19-.71-.43-.36-.43-.71,.1-.36,.1-.71,.13-.36,.13-.71,.52-.36,.52-.71,0-.36,0-.71-.69-.36-.69-.71-.17-.36-.17-.71,.41-.36,.41-.71,.01-.36,.01-.72-.22-.36-.22-.72,.32-.36,.32-.72-.19-.36-.19-.72,.11-.36,.11-.71-.4-.36-.4-.71,.36-.36,.36-.71,.2-.36,.2-.71-.27-.36-.27-.71-.04-.36-.04-.71,.02-.36,.02-.72-.06-.36-.06-.72,.53-.36,.53-.72-.54-.36-.54-.72,.21-.36,.21-.72,.13-.36,.13-.72-.34-.36-.34-.72,.39-.36,.39-.72-.52-.36-.52-.72,.58-.36,.58-.72,.07-.36,.07-.72-.22-.36-.22-.72,.14-.36,.14-.72-.52-.36-.52-.71,.08-.36,.08-.71,.65-.36,.65-.71-.05-.36-.05-.72-.53-.36-.53-.72,.2-.36,.2-.72,.21-.36,.21-.72-.53-.36-.53-.72,.63-.36,.63-.72-.6-.36-.6-.72,.62-.36,.62-.72-.94-.36-.94-.72,.08-.36,.08-.72,.04-.36,.04-.72,.86-.36,.86-.72-.16-.36-.16-.72-.15-.36-.15-.72-.63-.36-.63-.73,.19-.48,.44-.74,.37-.33,.73-.33,.36,.58,.72,.58,.36-.07,.72-.07,.36-.5,.72-.5,.36,.24,.72,.24,.36-.34,.72-.34,.36,.89,.72,.89,.36-.05,.72-.05,.36-.65,.72-.65,.36,.52,.72,.52,.36-.59,.73-.59,.36,.29,.73,.29,.36-.28,.72-.28,.36,.62,.73,.62,.36-.74,.72-.74,.36,.66,.72,.66,.36,.17,.73,.17,.36-.17,.73-.17,.36-.27,.73-.27,.36-.07,.72-.07,.36,.51,.73,.51,.36-.3,.73-.3,.37-.04,.73-.04,.3-.15,.56,.1-.24,.18-.24,.55,.55,.36,.55,.72,.1,.36,.1,.72-.43,.36-.43,.72,.34,.36,.34,.72-.07,.36-.07,.72,.11,.36,.11,.72-.18,.36-.18,.72-.18,.36-.18,.72,.62,.36,.62,.72-.16,.36-.16,.72-.26,.36-.26,.72-.18,.36-.18,.72,.54,.36,.54,.72-.15,.36-.15,.72,.14,.36,.14,.72-.3,.36-.3,.72-.28,.36-.28,.72-.03,.36-.03,.72-.08,.36-.08,.72,.32,.36,.32,.72,.03,.36,.03,.72-.32,.36-.32,.72,.11,.36,.11,.72,.29,.36,.29,.72-.51,.36-.51,.72,.16,.36,.16,.72,.08,.36,.08,.73,.49,.36,.49,.72-.38,.36-.38,.72-.18,.36-.18,.72,.14,.36,.14,.72-.09,.36-.09,.72,.23,.36,.23,.72,.32,.36,.32,.73,.07,.36,.07,.72-.42,.36-.42,.72-.04,.36-.04,.72-.05,.36-.05,.72-.24,.36-.24,.72,.48,.36,.48,.72-.1,.36-.1,.72,.02,.36,.02,.73-.51,.36-.51,.72,.34,.36,.34,.72-.13,.36-.13,.72,.52,.36,.52,.73-.82,.36-.82,.73,.15,.36,.15,.73,.47,.36,.47,.73-.5,.36-.5,.73-.08,.36-.08,.73,.33,.36,.33,.73,.49,.36,.49,.73-.56,.37-.56,.73,.16,.36,.29,.7c.16,.41,.35,.4,.35,.77Z"/><path d="M300.04,90c-.23,.02-.88-.05-1.12-.04s-.47,.05-.71,.06-.47,.08-.71,.1-.47,.1-.71,.11-.48-.07-.72-.06-.49-.48-.73-.47-.47,.15-.71,.15-.46,.32-.7,.33-.48-.13-.72-.13-.46,.49-.71,.5-.49-.8-.73-.79-.47,.05-.71,.05-.47,.83-.71,.83-.48-.15-.72-.15-.49-.56-.73-.56-.5,.58-.74,.57-.5-.04-.74-.04-.47-.47-.72-.49-.53,.68-.77,.66-.48-.24-.72-.26-.43-.65-.67-.68-.54,.41-.78,.38-.39-.68-.63-.72-.65,.87-.88,.82-.5-.11-.73-.16-.41-.46-.64-.52-.32-.68-.55-.74-.63,.4-.86,.33-.31-.56-.54-.65-.69,.38-.91,.28-.48-.17-.69-.28-.43-.28-.64-.4-.11-.73-.3-.87-.28-.4-.47-.55c-.18-.15-.52-.09-.69-.25s-.13-.49-.29-.67-.91,.15-1.06-.03-.37-.35-.5-.54-.19-.46-.31-.67-.07-.51-.17-.72,.2-.6,.11-.82-.69-.23-.77-.46,.59-.68,.53-.9-.96-.22-1.02-.45,.12-.52,.07-.75,.18-.5,.14-.74,.31-.5,.28-.74-.35-.42-.37-.66,.01-.46,0-.7,.21-.47,.2-.71-.92-.46-.92-.7c0-.36,.68-.36,.68-.72s0-.36,0-.72-.36-.36-.36-.72-.29-.36-.29-.72,.84-.36,.84-.72-.73-.36-.73-.72,.21-.36,.21-.72,.35-.36,.35-.72-.38-.36-.38-.72,.34-.36,.34-.72-.32-.36-.32-.72-.33-.36-.33-.72,.1-.36,.1-.72,.76-.36,.76-.72-.48-.36-.48-.72,.02-.36,.02-.72,.12-.36,.12-.72-.04-.36-.04-.72-.41-.36-.41-.72,.32-.36,.32-.72-.18-.36-.18-.72-.18-.36-.18-.72,.03-.36,.03-.72,.25-.36,.25-.72-.29-.36-.29-.72,.57-.36,.57-.72-.43-.36-.43-.72,.32-.36,.32-.72,.33-.36,.33-.72-.31-.36-.31-.72,.08-.36,.08-.72-.58-.36-.58-.72,.69-.36,.69-.72-.59-.36-.59-.72-.09-.36-.09-.72,.68-.36,.68-.72-.4-.36-.4-.72,.4-.36,.4-.72-.25-.36-.25-.72-.01-.36-.01-.72-.02-.36-.02-.72,.36-.36,.36-.72-.56-.36-.56-.72-.03-.36-.03-.72,.36-.36,.36-.72,.07-.36,.07-.72-.36-.36-.36-.72,.02-.36,.02-.72,.54-.36,.54-.73-.48-.36-.48-.72-.4-.36-.4-.72,.98-.36,.98-.72-.24-.36-.24-.73-.22-.36-.22-.73,.13-.36,.13-.73,.28-.64,.03-.91-.53,.66-.88,.66-.35-.25-.7-.25-.35,.11-.7,.11-.35,.05-.7,.05-.35-.52-.7-.52-.35,.15-.7,.15-.35-.13-.7-.13-.35,.19-.7,.19-.35-.32-.7-.32-.35,.19-.7,.19-.35,.04-.71,.04-.35-.28-.71-.28-.57,.66-.82,.41-.33-.46-.33-.82,.38-.36,.38-.71-.33-.36-.33-.72,.13-.36,.13-.71,.38-.36,.38-.71,.07-.36,.07-.71-.26-.36-.26-.72,.06-.36,.06-.72,.21-.36,.21-.72,.18-.36,.18-.72-.42-.36-.42-.72-.32-.36-.32-.72,.66-.36,.66-.71,.13-.36,.13-.72-.89-.36-.89-.72,.3-.36,.3-.72,.1-.27,.35-.53,.15-.24,.5-.24,.35-.19,.7-.19,.35,.44,.7,.44,.35-.02,.7-.02,.35,.21,.7,.21,.35-.52,.7-.52,.35,.59,.7,.59,.35-.95,.7-.95,.35,.61,.7,.61,.35-.59,.7-.59,.35,.78,.71,.78,.35-.2,.71-.2,.22-.1,.47-.35-.23-.12-.23-.47,.03-.35,.03-.71,.14-.35,.14-.71,.61-.35,.61-.71-.8-.35-.8-.71,.8-.35,.8-.71-.11-.35-.11-.7,.1-.35,.1-.7-.52-.35-.52-.71,.6-.35,.6-.71-.5-.36-.5-.71-.06-.35-.06-.71,.17-.35,.17-.71-.21-.35-.21-.71-.19-.36-.19-.71,.5-.36,.5-.71,.39-.36,.39-.71-.15-.36-.15-.71-.49-.36-.49-.71-.25-.36-.25-.71,.52-.35,.52-.71,.07-.36,.07-.71,.05-.36,.05-.71-.38-.36-.38-.72-.41-.76-.15-1.01,.66-.14,1.02-.14,.36,.43,.72,.43,.36-.12,.72-.12,.36,.01,.72,.01,.36,.41,.72,.41,.36-.39,.72-.39,.36,.56,.72,.56,.36-.59,.72-.59,.36,.53,.72,.53,.36-.78,.72-.78,.36,.09,.72,.09,.36,0,.72,0,.36-.12,.72-.12,.36,.02,.73,.02,.36,.19,.72,.19,.36,.34,.72,.34,.36-.51,.73-.51,.36-.09,.73-.09,.36,.84,.73,.84,.36-.12,.72-.12,.36-.7,.73-.7,.36-.01,.73-.01,.37,.15,.73,.15,.63-.09,.89,.16,.12,.52,.12,.87-.39,.35-.39,.71,.44,.35,.44,.71,.05,.35,.05,.71-.09,.35-.09,.71-.43,.35-.43,.71-.34,.35-.34,.7,.86,.35,.86,.7-.26,.35-.26,.71,.24,.35,.24,.71-.42,.36-.42,.71,0,.35,0,.71,.34,.35,.34,.71-.08,.35-.08,.71,.02,.36,.02,.71-.53,.36-.53,.71,.35,.36,.35,.71-.14,.36-.14,.71,.43,.36,.43,.71-.17,.36-.17,.71-.34,.35-.34,.71,.47,.36,.47,.71-.12,.36-.12,.71-.09,.36-.09,.72-.52,.65-.27,.9,.54,.09,.89,.09,.35-.07,.7-.07,.35-.59,.7-.59,.35,.71,.7,.71,.35-.14,.71-.14,.35-.37,.71-.37,.35,.17,.71,.17,.35,.27,.71,.27,.35,.05,.71,.05,.35-.56,.71-.56,.35,.5,.7,.5,.35-.47,.71-.47,.35,.67,.71,.67,.36-.29,.71-.29,.49-.43,.74-.18-.13,.38-.13,.74,.57,.36,.57,.71-.85,.36-.85,.72,.58,.36,.58,.71-.14,.36-.14,.71,.32,.36,.32,.71,.05,.36,.05,.72-.44,.36-.44,.72-.11,.36-.11,.72,.31,.36,.31,.72,.04,.36,.04,.72-.35,.36-.35,.72-.31,.36-.31,.71,.2,.36,.2,.72,.2,.36,.2,.72-.1,.36-.1,.72,.34,.41,.08,.67-.3-.04-.65-.04-.35-.38-.7-.38-.35,.87-.7,.87-.35-.67-.7-.67-.35,.28-.71,.28-.35,.37-.71,.37-.35-.14-.71-.14-.35-.59-.71-.59-.35-.11-.71-.11-.35,.16-.71,.16-.35-.16-.7-.16-.35,.41-.71,.41-.35,.03-.71,.03-.36-.2-.71-.2-.21,.22-.46,.48-.32,.11-.32,.47,.52,.36,.52,.71-.9,.36-.9,.71,.08,.36,.08,.71,.46,.36,.46,.71-.52,.36-.52,.71,.3,.36,.3,.72,0,.36,0,.72,.23,.36,.23,.72-.31,.36-.31,.72-.26,.36-.26,.72,.12,.36,.12,.72-.03,.36-.03,.72,.16,.36,.16,.72,.73,.36,.73,.72-.39,.36-.39,.72-.15,.36-.15,.72,.24,.36,.24,.72-.5,.36-.5,.72,.02,.36,.02,.72,.03,.36,.03,.72,.53,.36,.53,.72,.02,.36,.02,.72-.18,.36-.18,.72,.16,.36,.16,.72,.2,.36,.2,.72-.34,.36-.34,.72-.54,.36-.54,.72,.43,.36,.43,.72-.15,.36-.15,.72,.58,.36,.58,.72-.3,.36-.3,.72-.06,.36-.06,.72-.54,.36-.54,.72,.56,.36,.56,.72,.23,.36,.23,.72-.71,.36-.71,.72,.68,.36,.68,.72-.63,.36-.63,.72,.28,.36,.28,.72,.39,.36,.39,.72-.05,.36-.05,.72-.63,.36-.63,.72,.32,.36,.32,.72,.13,.36,.13,.72-.26,.36-.26,.72,.34,.36,.34,.72-.6,.36-.6,.72,.01,.36,.01,.73,.3,.36,.3,.73,.31,.36,.31,.73-.55,.36-.55,.73c0,.25,.51,.46,.53,.68,.03,.25-.57,.62-.51,.83,.06,.24,.53,.37,.63,.57,.11,.22,.2,.48,.36,.65s.37,.38,.58,.49c.18,.1,.45,.2,.71,.28,.21,.06,.53-.24,.78-.19,.22,.04,.46-.03,.71,0,.22,.03,.46-.05,.71-.03,.23,.02,.42,.68,.67,.69,.23,.01,.47,.1,.72,.1,.23,0,.49-.58,.74-.57,.23,0,.47,.14,.72,.14,.36,0,.36-.12,.71-.12s.36,.44,.71,.44,.36-.12,.71-.12,.36-.39,.72-.39,.37,.13,.62,.39-.26,.26-.26,.62,.33,.36,.33,.71,.27,.36,.27,.71-.58,.36-.58,.72,.68,.36,.68,.71-.31,.36-.31,.71-.33,.36-.33,.71,.66,.36,.66,.72-.28,.36-.28,.72,0,.36,0,.72-.59,.36-.59,.72,.08,.36,.08,.72,.48,.36,.48,.72-.08,.36-.08,.72-.29,.36-.29,.72,.57,.36,.57,.72-.69,.51-.55,.85c.19,.46,.81,.39,.7,.73Z"/></g></g></g></svg>