<?xml version="1.0" encoding="UTF-8"?><svg xmlns="http://www.w3.org/2000/svg" viewBox="0 0 388.83 86.27"><g id="a"/><g id="b"><g id="c"><g><path d="M60.91,60.12c-.03,.24-.06,.03-.09,.27s-.11,.47-.15,.71-.3,.44-.33,.68,.81,.63,.77,.87-.76,.35-.81,.59-.1,.47-.15,.71,.24,.55,.18,.79,.17,.55,.1,.78-.94,.24-1,.47,.56,.68,.49,.91-.35,.4-.42,.63-.49,.34-.57,.56,.18,.59,.1,.81-.49,.32-.59,.54,.1,.57,0,.79,.09,.59-.02,.8-.31,.4-.42,.61-.9,.07-1.01,.28,.18,.65,.06,.86-.26,.41-.39,.61-.36,.34-.49,.54-.24,.42-.38,.62,.05,.64-.1,.83-.55,.19-.7,.38-.17,.49-.33,.67-.19,.49-.35,.67-.36,.34-.53,.52-.52,.17-.69,.34-.15,.55-.33,.71-.74-.09-.92,.07-.08,.64-.26,.79-.57,.06-.75,.2-.57,.02-.76,.16-.2,.52-.39,.66-.43,.2-.63,.33-.08,.75-.29,.87-.76-.34-.97-.22-.12,.75-.33,.86-.38,.31-.59,.42-.73-.4-.94-.29-.26,.57-.47,.66-.59-.18-.81-.09-.34,.41-.56,.49-.44,.18-.66,.26-.44,.17-.66,.25-.55-.2-.78-.13-.29,.67-.52,.73-.45,.15-.68,.21-.54-.23-.77-.18-.47,.03-.7,.08-.39,.45-.63,.49-.47,.07-.71,.1-.55-.46-.78-.43-.4,.54-.63,.57-.43,.46-.66,.48-.56-.93-.8-.91-.45,.27-.68,.29-.45,.25-.69,.26-.48-.11-.71-.1-.47-.09-.71-.08-.47,.75-.71,.75-.49-.26-.73-.26-.49,.1-.74,.09-.5,.03-.74,.02-.46-.55-.71-.56-.5,.11-.74,.09-.48-.17-.72-.19-.51,.14-.75,.11-.44-.38-.69-.41-.51,.12-.75,.08-.49-.04-.73-.08-.43-.37-.66-.41-.57,.35-.81,.3-.55,.17-.78,.11-.39-.49-.62-.55-.56,.19-.8,.12-.44-.26-.67-.34-.35-.51-.58-.59-.43-.23-.66-.31-.55,.08-.77-.01-.43-.24-.65-.34-.36-.39-.58-.49-.36-.37-.57-.47-.62,.15-.83,.04-.59,.05-.8-.07-.09-.82-.29-.94-.33-.36-.54-.49-.9,.47-1.1,.34-.23-.53-.43-.67-.13-.63-.32-.78-.58-.04-.77-.2-.5-.17-.68-.33-.07-.65-.25-.82-.37-.31-.54-.48-.19-.48-.36-.66-.71,.01-.88-.17c-.16-.18,.12-.74-.03-.93s-1.04,.25-1.19,.06,.17-.76,.03-.94-.76-.03-.9-.22,.35-.84,.22-1.04-.43-.28-.56-.48-.64-.16-.76-.37-.37-.35-.49-.56-.22-.44-.33-.65-.11-.49-.22-.7,.33-.7,.22-.91-.93-.09-1.03-.31,.54-.76,.44-.98-.29-.39-.38-.61-.08-.48-.16-.7-.65-.27-.73-.49,.41-.64,.34-.87-.62-.3-.69-.53-.2-.44-.26-.67,.04-.5-.03-.74-.32-.41-.38-.64-.3-.42-.35-.66,.39-.57,.34-.81,.28-.54,.24-.77-.23-.44-.28-.67-.56-.39-.6-.63-.32-.44-.35-.68,.44-.54,.41-.78,.02-.48-.01-.72,0-.48-.02-.72-.43-.44-.45-.68-.31-.46-.33-.7-.05-.48-.07-.72,.4-.5,.39-.74-.14-.47-.15-.72,0-.48,0-.73,.4-.49,.39-.73-.4-.48-.4-.73,.56-.48,.57-.72-.58-.49-.57-.74,.54-.47,.55-.71S0,48.82,.02,48.58s.11-.49,.13-.73,.04-.49,.06-.73-.08-.5-.06-.74,.07-.49,.09-.73,.25-.47,.28-.71,.4-.44,.44-.68-.44-.56-.4-.8-.01-.5,.03-.74,.91-.33,.95-.57-.03-.5,.02-.73-.59-.62-.53-.86,.1-.48,.15-.72,.26-.44,.32-.67,.22-.45,.29-.68,.09-.48,.16-.71,.51-.35,.59-.58-.26-.6-.18-.83,.12-.48,.21-.7,.25-.43,.34-.65,.58-.29,.67-.51,.5-.3,.59-.52-.58-.8-.47-1.02,.45-.32,.56-.54,0-.55,.12-.76,.6-.23,.72-.43,.24-.42,.36-.62-.04-.59,.09-.8,.33-.37,.46-.57,.26-.41,.39-.61,.7-.09,.85-.28,0-.6,.15-.79,.4-.3,.55-.48-.02-.65,.13-.83,.44-.26,.6-.44c.16-.18,.58-.13,.74-.31s0-.68,.17-.85,.44-.26,.61-.43,.41-.27,.59-.44,.59-.07,.77-.23,.37-.3,.56-.46,.33-.36,.52-.51,.03-.76,.23-.91,.8,.29,1,.15,.32-.39,.52-.52,.21-.58,.41-.71,.5-.11,.71-.23,.55,0,.76-.12,.44-.18,.66-.29,.19-.72,.41-.82,.65,.25,.87,.15,.26-.63,.48-.72,.69,.44,.92,.36,.35-.44,.58-.52,.39-.34,.62-.41,.5-.02,.73-.09,.31-.68,.55-.75,.68,.7,.92,.64,.34-.68,.57-.73,.5,.03,.74-.02,.42-.41,.66-.45,.48-.13,.72-.17,.54,.36,.78,.33,.49,.05,.73,.02,.45-.36,.69-.38,.48-.08,.73-.1,.51,.32,.75,.31,.49,.29,.74,.28,.47-.21,.72-.22,.49-.2,.73-.2,.49,.1,.73,.11,.49-.05,.73-.05,.48,.03,.73,.05,.46,.41,.7,.42,.55-.84,.79-.82,.42,.71,.66,.74,.51-.23,.75-.2,.53-.3,.77-.26,.46,.21,.7,.25,.37,.67,.61,.71,.45,.19,.68,.24,.5-.06,.73,0,.43,.26,.66,.32,.57-.28,.8-.21,.47,.11,.7,.18,.4,.34,.62,.41,.65-.39,.88-.31,.31,.56,.53,.65,.65-.3,.87-.21,.09,1.02,.31,1.12,.46,.12,.68,.22,.63-.2,.85-.09,.18,.68,.39,.8,.56-.03,.77,.09,.41,.25,.61,.38,.53,.06,.73,.2,.23,.52,.42,.66,.23,.49,.43,.63,.45,.19,.64,.33,.35,.32,.54,.47,.47,.18,.65,.33c.18,.16,.86-.23,1.03-.06s.09,.62,.27,.79,.24,.45,.41,.62,.51,.19,.67,.36-.04,.69,.12,.87,.33,.34,.48,.53,.32,.35,.47,.54,.72,.07,.86,.26,.3,.39,.44,.59,.12,.51,.25,.71,.4,.33,.52,.54,.42,.33,.54,.54-.06,.59,.05,.81-.27,.67-.16,.88,.6,.25,.69,.47,.05,.5,.15,.72,.72,.24,.81,.47-.12,.56-.04,.79,.09,.48,.16,.71-.38,.61-.32,.84,.67,.32,.73,.55,.34,.42,.39,.66-.6,.61-.55,.85,.76,.35,.8,.59-.54,.57-.51,.81,.34,.44,.37,.68,.44,.44,.46,.68,0,.49,.01,.74-.39,.22-.38,.46c-.33,.12-.25,.3-.61,.3s-.35,.13-.71,.13-.35-.26-.71-.26-.35,.34-.71,.34-.35-.6-.71-.6-.35,.01-.71,.01-.35,.3-.7,.3-.35,.31-.7,.31-.35-.55-.7-.55-.35,.5-.71,.5-.35-.65-.71-.65-.35,.39-.71,.39-.35-.08-.7-.08-.35-.05-.71-.05-.35,0-.71,0-.35,.36-.71,.36-.35,.11-.71,.11-.35,.1-.71,.1-.35-.64-.71-.64-.35-.07-.71-.07-.35,.59-.71,.59-.36-.14-.71-.14-.36,.12-.71,.12-.36-.44-.71-.44-.34,.24-.68,.13c-.01-.25-.35-.37-.38-.62s.37-.54,.33-.78,.13-.54,.08-.78-.43-.42-.5-.65-.39-.39-.47-.62,.37-.68,.27-.9-.82-.16-.93-.38,.05-.58-.08-.79,0-.61-.13-.81-.82,0-.97-.19-.1-.55-.27-.73-.34-.35-.52-.52c-.17-.16,.03-.77-.15-.91s-.44-.25-.62-.38-.66,.12-.86,0-.36-.31-.56-.42-.29-.48-.51-.57-.65,.34-.87,.26-.25-.7-.47-.77-.64,.57-.87,.52-.36-.48-.59-.52-.43-.27-.66-.3-.5,.37-.74,.35-.45-.13-.68-.14-.46-.15-.69-.15c-.25,0-.52-.51-.76-.5s-.52,.02-.76,.05-.41,.74-.65,.78-.44,.24-.68,.3-.57-.29-.8-.22-.48,.13-.71,.21-.38,.38-.6,.47-.58-.09-.8,.03-.34,.4-.55,.53-.47,.17-.67,.32-.14,.6-.33,.76-.6,.04-.78,.21-.5,.2-.67,.38-.12,.55-.28,.74-.27,.4-.42,.6-.29,.38-.43,.59c-.13,.2-.2,.43-.33,.64s-.7,.16-.81,.38,.27,.67,.16,.89-.39,.35-.49,.57-.3,.4-.39,.62,.16,.57,.08,.8-.52,.33-.59,.57,.36,.6,.3,.83-.68,.32-.74,.55-.18,.46-.23,.69,.12,.52,.07,.76-.22,.45-.26,.69,.44,.55,.4,.79-.15,.46-.18,.7-.7,.4-.72,.64,0,.49-.02,.73,.48,.52,.47,.76-.23,.47-.24,.71-.23,.47-.24,.71,.51,.5,.5,.74-.64,.47-.64,.71,.59,.49,.59,.74-.62,.48-.61,.72,.95,.46,.96,.69-.06,.47-.05,.7-.02,.47,0,.7-.83,.53-.81,.76,.2,.47,.22,.7,.19,.46,.22,.69,.68,.39,.71,.62-.37,.52-.34,.75,.39,.41,.43,.64-.49,.57-.44,.8,.16,.46,.21,.68,.59,.35,.65,.57-.11,.51-.05,.74,.46,.35,.53,.57-.7,.73-.62,.95,.21,.44,.29,.66,.78,.19,.87,.41-.28,.65-.17,.85,.73,.15,.84,.36-.02,.55,.1,.74,.48,.24,.61,.44c.14,.21-.23,.76-.08,.96s.87-.07,1.03,.11-.17,.81,0,.98,.24,.48,.42,.65,.5,.21,.69,.36,.55,.09,.75,.23,.44,.21,.65,.33,.19,.69,.41,.8,.58-.06,.81,.04,.47,.15,.7,.23,.42,.32,.66,.39,.45,.28,.69,.33,.58-.45,.83-.42,.48-.04,.73-.02,.45,.47,.7,.48,.49-.32,.74-.32,.49,.07,.74,.05,.48-.14,.72-.17,.51,.11,.75,.07,.53,.08,.77,.02,.3-.72,.53-.8,.5,0,.72-.1,.55,.05,.77-.06,.53-.07,.74-.19,.13-.7,.33-.84,.47-.15,.67-.3,.28-.4,.46-.57,.56-.1,.73-.28,.55-.17,.71-.35,.36-.36,.51-.55,.37-.36,.51-.56,0-.59,.14-.8,.22-.44,.34-.66,.51-.3,.61-.53,.1-.5,.19-.73-.1-.56-.02-.79,.64-.32,.71-.56-.03-.53,.03-.77,.03-.5,.08-.75-.4-.56-.36-.8,.42-.4,.45-.65c.33-.11,.34,.19,.69,.19s.35-.14,.71-.14,.35,.09,.71,.09,.35-.23,.71-.23,.35-.32,.71-.32,.35-.07,.71-.07,.35,.42,.7,.42,.35,.04,.7,.04,.35,.05,.7,.05,.35,.24,.71,.24,.35-.48,.71-.48,.35,.1,.71,.1,.35-.02,.7-.02,.35,.51,.71,.51,.35-.34,.71-.34,.35,.13,.71,.13,.35-.52,.71-.52,.35,.82,.71,.82,.35-.15,.71-.15,.35-.47,.71-.47,.35,.5,.71,.5,.36,.08,.71,.08,.36-.33,.71-.33,.49-.58,.83-.47,.11,.66,.44,.78Z"/><path d="M70.8,76.19c-.17-.17-.55-.13-.71-.3s-.29-.38-.45-.56-.14-.5-.3-.69-1.01,.21-1.16,.03,.24-.8,.09-.99-.29-.38-.43-.57-.57-.18-.71-.38-.52-.24-.65-.44,.44-.86,.32-1.06-.88-.03-1-.23-.07-.52-.18-.73,.08-.59-.03-.8-.56-.25-.66-.46,.09-.58,0-.79-.49-.3-.59-.52-.5-.32-.59-.54-.09-.49-.18-.71,.54-.71,.46-.94-.61-.29-.69-.52-.14-.46-.21-.69-.03-.49-.1-.72-.17-.45-.23-.68-.53-.36-.58-.59,.19-.54,.14-.78-.28-.43-.33-.67-.27-.44-.32-.68-.05-.48-.1-.72,.17-.52,.13-.76-.35-.44-.39-.68,.5-.55,.48-.79-.48-.43-.51-.67,.27-.51,.25-.75,.29-.5,.28-.74-.34-.46-.35-.7,.06-.48,.05-.72-.6-.46-.6-.7,.68-.49,.68-.74-.59-.48-.59-.72-.09-.48-.09-.72,.69-.47,.7-.7-.39-.49-.38-.73,.42-.46,.43-.7-.22-.49-.21-.73,.02-.48,.04-.72,.02-.48,.05-.72,.41-.44,.44-.67-.5-.54-.47-.78,.03-.48,.07-.72,.42-.42,.46-.65,.15-.46,.19-.69-.27-.54-.22-.77,.11-.47,.16-.7,.63-.34,.69-.57-.36-.58-.3-.81-.27-.57-.2-.8,1.07-.19,1.14-.42-.09-.52-.02-.74-.06-.52,.02-.74,.28-.41,.36-.63,.26-.41,.34-.63-.51-.72-.42-.94,.42-.35,.52-.56,.1-.49,.2-.7,.16-.46,.27-.67,.68-.19,.79-.4,.09-.49,.21-.7,.35-.35,.47-.55,.08-.51,.21-.71,.52-.23,.65-.43,.1-.5,.24-.69,.24-.41,.38-.6,.51-.21,.65-.4-.07-.66,.08-.84,.08-.56,.23-.74,.6-.12,.76-.3,.07-.58,.23-.76,.42-.27,.59-.44c.17-.17,.6-.08,.77-.24s.39-.28,.56-.44,.17-.52,.34-.68,.4-.27,.58-.42,.5-.15,.68-.3,.48-.15,.66-.3,.12-.62,.31-.76,.2-.55,.39-.68,.77,.28,.96,.14,.46-.15,.66-.27-.06-1.01,.14-1.13,.57,.01,.77-.1,.62,.15,.83,.04,.27-.51,.48-.62,.35-.38,.56-.48,.61,.2,.83,.1,.42-.21,.64-.3,.51,.02,.73-.07,.26-.66,.48-.74,.64,.4,.86,.32,.15-1.05,.38-1.13,.63,.44,.86,.38,.3-.7,.53-.76,.65,.63,.88,.58,.41-.3,.64-.35,.37-.54,.6-.59,.45-.22,.68-.27,.48-.06,.72-.1,.5,.06,.73,.02,.55,.54,.79,.51,.38-.86,.61-.88,.55,.75,.79,.73,.46-.15,.7-.17,.48,.07,.72,.05,.45-.54,.68-.56,.5,.58,.74,.58,.46-.51,.7-.51,.48-.07,.72-.07,.48,.17,.72,.18,.48-.2,.72-.19,.49-.18,.73-.17,.45,.52,.69,.54,.45,.42,.68,.43,.48-.11,.72-.09,.53-.44,.76-.41,.51-.19,.75-.16,.41,.57,.64,.61,.46,.14,.69,.18,.46,.13,.69,.17,.54-.29,.77-.24,.53-.17,.76-.12,.48,.09,.71,.15,.36,.53,.59,.59,.5,0,.72,.07,.46,.15,.68,.22,.33,.53,.55,.61,.58-.22,.8-.13,.25,.69,.47,.78,.66-.37,.88-.28,.23,.67,.45,.76,.76-.52,.98-.41,.4,.29,.61,.39,.43,.23,.64,.34,.49,.12,.69,.24,.41,.26,.62,.38,.31,.42,.51,.54,.21,.55,.41,.68,.69-.16,.88-.02,.45,.21,.64,.35-.13,.95,.06,1.1,.44,.19,.63,.34,.82-.23,1-.08,.38,.31,.55,.47,.26,.43,.43,.6,.28,.41,.45,.57,.38,.31,.54,.48c.16,.17,.05,.61,.21,.79s.65,.06,.8,.24,.35,.34,.5,.52,.24,.43,.39,.61-.05,.64,.1,.83,0,.57,.15,.77,.98-.1,1.11,.09,.05,.55,.18,.74,.47,.27,.59,.48-.11,.63,0,.83,.23,.41,.35,.62,.53,.26,.64,.47,.15,.46,.26,.67,.22,.42,.33,.64-.28,.65-.18,.87,.51,.29,.61,.51,.05,.49,.14,.71,.57,.29,.65,.52,0,.51,.08,.73-.17,.56-.1,.78,.59,.31,.66,.54,.01,.49,.08,.72,.04,.48,.1,.71-.22,.54-.16,.77,.1,.46,.15,.69,.17,.45,.21,.68,.67,.36,.71,.59-.61,.59-.58,.82,.21,.44,.24,.68,.44,.42,.47,.66-.11,.49-.08,.73-.22,.5-.19,.74,0,.47,.02,.71,.59,.43,.61,.67-.47,.5-.46,.74,.49,.45,.5,.69-.65,.5-.65,.74,.3,.47,.31,.71,.2,.48,.2,.72-.14,.48-.14,.72,.56,.5,.55,.73-.87,.45-.88,.69,.56,.51,.54,.75-.17,.48-.18,.72,.28,.51,.26,.75,0,.49-.02,.73-.49,.43-.52,.67-.17,.46-.2,.7,.24,.52,.2,.76-.03,.49-.07,.72-.43,.41-.48,.65-.39,.41-.44,.64,.09,.51,.04,.74,.08,.51,.02,.74-.22,.44-.28,.67-.07,.48-.13,.71-.15,.45-.23,.68-.51,.33-.58,.56,.67,.74,.59,.97-.8,.21-.88,.44,.08,.55,0,.77,.15,.59,.05,.81-.33,.39-.43,.6-.74,.17-.85,.39-.31,.37-.42,.58-.08,.49-.2,.7-.37,.33-.49,.54,.11,.62-.02,.82-.23,.42-.36,.62-.43,.28-.57,.48,.2,.73,.05,.92-.62,.13-.77,.32,.11,.7-.04,.89-1-.21-1.15-.02-.24,.41-.4,.59,.02,.66-.14,.84-.7-.01-.87,.16-.12,.54-.29,.71-.35,.32-.52,.48-.2,.49-.38,.65-.56,.08-.74,.23-.53,.1-.71,.24-.29,.38-.48,.53-.39,.25-.58,.39-.29,.41-.48,.54,.01,.88-.19,1.01-.62-.07-.82,.05-.48,.12-.69,.24-.3,.44-.5,.56-.65-.21-.86-.1-.4,.23-.62,.34-.41,.23-.63,.33-.22,.68-.44,.77-.44,.2-.66,.29-.51,0-.73,.09-.39,.32-.62,.4-.39,.35-.62,.42-.56-.17-.78-.11-.6-.38-.83-.32-.34,.54-.57,.6-.49-.03-.72,.03-.34,.68-.57,.73-.53-.2-.76-.15-.48,.03-.71,.07-.55-.45-.79-.41-.38,.63-.62,.66-.44,.29-.68,.32-.55-.65-.79-.62-.4,.73-.64,.75-.52-.58-.76-.57-.45,.32-.69,.33-.46,.41-.69,.42-.48-.03-.72-.02-.49-.61-.73-.61-.48,.33-.72,.33-.49,.12-.73,.12-.48-.27-.72-.28-.5,.32-.74,.31-.45-.63-.7-.64-.48-.02-.73-.04-.51,.26-.75,.23-.52,.26-.76,.23-.42-.61-.66-.64-.55,.43-.79,.39-.38-.72-.62-.76-.54,.31-.78,.26-.46-.17-.7-.22-.46-.15-.7-.2-.47-.11-.71-.17-.56,.23-.8,.17-.5-.03-.73-.1-.5-.04-.73-.12-.26-.76-.49-.84-.43-.22-.66-.31-.66,.38-.89,.29-.4-.31-.63-.4-.5-.09-.72-.19-.26-.6-.48-.7-.49-.1-.7-.21-.62,.12-.83,0-.22-.61-.43-.73-.3-.43-.51-.56-.58,.03-.79-.1-.56-.04-.76-.18-.07-.75-.26-.89-.8,.26-.99,.12-.2-.54-.39-.7-.17-.56-.35-.71-.8,.19-.98,.03-.18-.54-.36-.7-.36-.33-.53-.5,.05-.73-.12-.9Zm36.39-9.74c.15-.18,.06-.57,.2-.76s.32-.37,.45-.57,.45-.29,.57-.5-.56-.85-.45-1.06,.83-.11,.93-.33,.2-.44,.3-.66-.15-.57-.07-.8-.12-.53-.04-.76,.95-.19,1.02-.42-.57-.65-.51-.88,.32-.4,.37-.63,.45-.39,.5-.62-.28-.54-.24-.77,.42-.41,.45-.65-.24-.51-.21-.75-.27-.5-.24-.74,.15-.45,.17-.69,.8-.41,.81-.65-.45-.5-.43-.74,.04-.47,.04-.71,.13-.47,.14-.71-.03-.48-.03-.73-.42-.48-.42-.73,.31-.49,.3-.73-.19-.48-.21-.72-.2-.47-.22-.71,0-.48-.02-.72,.21-.5,.18-.74-.34-.44-.37-.68,.5-.56,.47-.79-.5-.41-.54-.65,.22-.53,.18-.77,.22-.56,.17-.79-.41-.41-.47-.64-.05-.5-.12-.73-.69-.29-.77-.51,.5-.69,.41-.91-.72-.24-.81-.46-.27-.4-.37-.61,.41-.74,.3-.95-.58-.24-.7-.45,.1-.63-.03-.83-.47-.27-.61-.47-.29-.39-.44-.57c-.15-.19-.31-.36-.46-.53s-.05-.6-.21-.77-.72,.06-.9-.1-.36-.28-.54-.43-.14-.57-.33-.71-.35-.34-.54-.47-.58,.05-.79-.06-.39-.24-.6-.35-.19-.7-.41-.79-.62,.26-.84,.17-.56,.22-.78,.15-.17-1.07-.39-1.14-.53,.11-.76,.06-.5,.12-.74,.07-.44-.2-.68-.24-.46-.16-.7-.18-.52,.7-.76,.68-.44-.28-.68-.29-.46,.1-.7,.1-.46,.05-.69,.06-.49-.5-.72-.49-.46,.18-.69,.2-.49-.08-.72-.05-.44,.26-.66,.3-.53-.22-.76-.17-.42,.29-.64,.35-.44,.17-.66,.24-.55-.11-.77-.03-.27,.6-.48,.69-.29,.45-.5,.55-.58-.12-.79,0-.22,.52-.41,.65-.45,.15-.63,.29-.6-.02-.78,.13-.41,.26-.58,.42-.15,.51-.32,.68-.36,.3-.52,.47-.47,.23-.61,.41c-.15,.19-.44,.29-.58,.49s.07,.64-.06,.84,.03,.57-.09,.78-.82,.11-.93,.32-.34,.39-.44,.61,.62,.79,.53,1.02-.45,.33-.54,.56-.57,.31-.65,.55,.17,.56,.1,.79,.05,.51-.01,.74-.55,.36-.6,.6-.08,.48-.13,.72-.3,.44-.34,.68,.44,.56,.4,.8-.65,.4-.68,.64,.89,.59,.86,.83-.65,.42-.67,.66,.55,.52,.53,.77-.81,.43-.82,.68,.18,.49,.17,.74,.43,.49,.43,.74,.13,.49,.13,.74-.03,.47-.02,.71-.13,.48-.12,.71-.59,.5-.58,.74,.83,.43,.84,.66-.77,.54-.75,.77,.16,.47,.18,.7-.05,.49-.02,.72,.58,.4,.61,.63-.52,.57-.48,.8,.58,.38,.63,.61,.16,.45,.21,.68-.05,.5,0,.73,.32,.4,.39,.63,.32,.39,.4,.61-.32,.61-.24,.83-.18,.6-.09,.81,.33,.39,.43,.6,.64,.22,.75,.42,.44,.29,.55,.49-.2,.67-.07,.87,.2,.44,.34,.63,.24,.42,.39,.61c.15,.19,.61,.14,.77,.32s.52,.17,.7,.34,.35,.31,.53,.48,.09,.64,.28,.79,.46,.2,.66,.34,.39,.28,.6,.41,.22,.61,.44,.72,.62-.12,.84-.02,.23,.72,.46,.81,.67-.37,.91-.29,.31,.66,.55,.73,.67-.63,.91-.57,.44,.19,.69,.23,.47,.09,.71,.13,.49-.06,.74-.03,.47,.06,.72,.08,.47,.22,.72,.23,.49,.36,.74,.36c.24,0,.46-.52,.69-.53s.45-.11,.68-.13,.54,.8,.77,.78,.46-.17,.69-.21,.35-.76,.58-.8,.44-.1,.67-.15,.48,.04,.7-.02,.47-.03,.69-.1,.42-.19,.64-.27,.58,.19,.79,.1,.24-.59,.45-.69,.38-.25,.58-.36,.43-.15,.63-.28,.63,.1,.82-.04,.59-.02,.77-.17-.2-.95-.03-1.11,.51-.12,.68-.29,.14-.49,.29-.67,.93,.17,1.08-.01Z"/><path d="M131.32,18.54c.27-.26,.05-.17,.42-.17s.37,.05,.75,.05,.37,.23,.75,.23,.37-.91,.75-.91,.37,.68,.75,.68,.37,0,.75,0,.37-.36,.75-.36,.37-.29,.75-.29,.38,.84,.75,.84,.38-.73,.75-.73,.38,.21,.75,.21c.34,0,.34,.35,.69,.35s.35-.38,.69-.38,.34,.34,.69,.34,.34-.32,.69-.32,.35-.33,.69-.33,.35,.1,.69,.1,.34,.76,.69,.76,.34-.48,.69-.48,.35,.02,.69,.02,.35,.12,.69,.12,.35-.04,.7-.04,.72-.55,.97-.3-.2,.62-.2,.97,.18,.35,.18,.69,.18,.35,.18,.69-.03,.35-.03,.7-.25,.35-.25,.69,.29,.35,.29,.69-.57,.35-.57,.7,.43,.35,.43,.7-.32,.35-.32,.7-.33,.35-.33,.69,.31,.35,.31,.7-.08,.35-.08,.7,.58,.35,.58,.7-.76,.41-.69,.76c.11-.19,.19-.61,.31-.8s.16-.44,.28-.62,.82,0,.94-.19-.08-.6,.05-.78,.58-.13,.72-.31,.07-.5,.2-.68c.15-.19,.3-.39,.45-.57s.3-.38,.47-.56,.59-.11,.76-.28-.05-.74,.12-.91,.34-.36,.52-.52,.6-.05,.79-.21,.42-.25,.61-.4,.17-.58,.37-.72,.41-.27,.61-.4,.7,.2,.9,.07,.17-.66,.38-.78,.24-.59,.46-.71,.87,.66,1.09,.55,.33-.41,.55-.51,.36-.39,.59-.48,.49-.05,.72-.13,.48-.06,.71-.13,.25-.86,.49-.92,.54,.11,.78,.05,.45-.22,.69-.27,.47-.15,.71-.2,.57,.43,.81,.39,.45-.22,.69-.25,.49,.07,.74,.04,.46-.24,.71-.26,.51,.28,.75,.26,.47-.22,.71-.23,.48-.06,.73-.06,.49,.28,.73,.28,.49-.45,.73-.45,.5-.27,.74-.26,.47,.4,.71,.42,.51-.3,.75-.28,.47,.17,.71,.2,.43,.43,.67,.47,.46,.14,.69,.18,.52-.18,.75-.13,.46,.16,.69,.21,.41,.31,.64,.37,.41,.3,.63,.36,.58-.26,.8-.18,.57-.15,.79-.06,.21,.79,.43,.88,.38,.3,.59,.4,.82-.6,1.03-.49,.3,.49,.51,.6,.2,.61,.41,.73,.58-.03,.78,.1,.51,.11,.7,.25,.12,.64,.31,.78,.38,.27,.57,.42,.22,.46,.4,.62,.71-.06,.88,.1-.08,.75,.08,.92,1.03-.3,1.18-.12-.15,.76,0,.94,.76,.01,.91,.2-.34,.84-.2,1.04,.43,.27,.56,.47,.64,.17,.76,.37,.36,.36,.48,.57,.21,.45,.32,.66,.09,.5,.19,.71-.36,.68-.27,.9,.93,.14,1.01,.36-.59,.72-.51,.95,.26,.41,.33,.63,.04,.48,.1,.71,.63,.32,.69,.55-.47,.6-.42,.83,.59,.36,.63,.59,.15,.46,.19,.7-.09,.5-.06,.73,.27,.44,.3,.68,.25,.46,.27,.7-.46,.52-.44,.76-.35,.49-.34,.73,.17,.46,.18,.7,.5,.46,.51,.7,.26,.49,.26,.73c0,.36-.52,.36-.52,.71s-.07,.36-.07,.71-.05,.36-.05,.71,.38,.36,.38,.71,.28,.36,.28,.71,.02,.36,.02,.71-.43,.36-.43,.71,.12,.36,.12,.71-.01,.36-.01,.71-.41,.36-.41,.71,.39,.36,.39,.71-.56,.36-.56,.71,.59,.36,.59,.71-.53,.36-.53,.71,.78,.36,.78,.71-.09,.36-.09,.71,0,.36,0,.71,.12,.36,.12,.71-.02,.36-.02,.71-.19,.36-.19,.71-.34,.36-.34,.71,.51,.36,.51,.72,.09,.36,.09,.72-.84,.36-.84,.71,.12,.36,.12,.71,.7,.36,.7,.71,.01,.36,.01,.71-.15,.36-.15,.71-.1,.36-.1,.71,.05,.36,.05,.71-.39,.36-.39,.71,.44,.36,.44,.72,.05,.36,.05,.72-.09,.36-.09,.72-.43,.36-.43,.71-.34,.36-.34,.71,.86,.36,.86,.71-.26,.36-.26,.72,.24,.36,.24,.72-.42,.36-.42,.72,0,.36,0,.72,.34,.36,.34,.72-.08,.36-.08,.72,.02,.36,.02,.71-.53,.36-.53,.71,.35,.36,.35,.71-.14,.36-.14,.72,.43,.36,.43,.72-.17,.36-.17,.72-.34,.36-.34,.72,.47,.36,.47,.72-.12,.36-.12,.72-.09,.36-.09,.72-.34,.36-.34,.72,0,.36,0,.72,.07,.36,.07,.72,.59,.36,.59,.72-.71,.36-.71,.72,.14,.36,.14,.72,.37,.36,.37,.72-.17,.36-.17,.72,.06,.29-.2,.55-.18-.12-.54-.12-.36,.56-.72,.56-.36-.5-.72-.5-.36,.47-.72,.47-.36-.67-.72-.67-.36,.29-.72,.29-.36,.19-.72,.19-.36-.14-.72-.14-.36,.57-.72,.57-.36-.85-.72-.85-.36,.58-.73,.58-.36-.14-.73-.14-.36,.32-.72,.32-.36,.05-.73,.05-.36-.44-.72-.44-.36-.11-.72-.11-.36,.31-.73,.31-.36,.04-.73,.04-.36-.35-.73-.35-.36-.31-.72-.31-.36,.2-.73,.2-.36,.2-.73,.2-.37-.1-.73-.1-.42,.34-.68,.08,.04-.31,.04-.67,.38-.36,.38-.72-.87-.36-.87-.72,.67-.36,.67-.72-.28-.36-.28-.72-.37-.36-.37-.72,.14-.36,.14-.72,.59-.36,.59-.72,.11-.36,.11-.72-.16-.36-.16-.72,.16-.36,.16-.72-.41-.36-.41-.72-.03-.36-.03-.72,.2-.36,.2-.72-.58-.36-.58-.72,.42-.36,.42-.72-.52-.36-.52-.72,.9-.36,.9-.72-.08-.36-.08-.72-.46-.36-.46-.72,.52-.36,.52-.72-.3-.36-.3-.72,0-.36,0-.72-.23-.36-.23-.72,.31-.36,.31-.72,.26-.36,.26-.72-.12-.36-.12-.72,.03-.36,.03-.72-.16-.36-.16-.72-.73-.36-.73-.72,.39-.36,.39-.72,.15-.36,.15-.72-.24-.36-.24-.72,.5-.36,.5-.72-.02-.36-.02-.72-.03-.36-.03-.72-.53-.36-.53-.72-.02-.36-.02-.72,.18-.36,.18-.72-.16-.36-.16-.72-.2-.36-.2-.72,.34-.36,.34-.72,.54-.36,.54-.73-.43-.36-.43-.72,.15-.36,.15-.72-.58-.36-.58-.72,.3-.36,.3-.73,.06-.36,.06-.73,.54-.36,.54-.73-.56-.36-.56-.73-.23-.36-.23-.73,.71-.36,.71-.73-.68-.36-.68-.72,.63-.36,.63-.73-.28-.36-.28-.73-.39-.37-.39-.73,.05-.37,.05-.73c0-.25,.62-.51,.62-.75s-.34-.49-.35-.73-.16-.49-.18-.73,.21-.53,.18-.77-.4-.44-.44-.68,.5-.61,.45-.85-.13-.5-.19-.74-.43-.4-.5-.63-.45-.36-.55-.58,.3-.69,.19-.91-.67-.2-.8-.41,.27-.79,.12-.99-.62-.16-.79-.35c-.16-.18-.29-.43-.47-.59s-.35-.37-.55-.52-.42-.3-.63-.43-.6,.07-.83-.04-.47-.11-.7-.2-.47-.07-.71-.15-.29-.76-.53-.82-.48-.18-.72-.23-.58,.5-.83,.47-.46-.19-.71-.21-.49,.08-.74,.07-.48-.45-.73-.45-.49,.12-.73,.13-.46,.41-.7,.43-.52-.38-.76-.36-.52-.16-.76-.12-.43,.41-.67,.45-.41,.36-.65,.42-.63-.43-.86-.36-.25,.79-.48,.88-.56-.12-.78-.03-.59-.1-.81,0-.12,.8-.32,.93-.55,0-.75,.14-.39,.28-.58,.42-.76-.15-.95,.01-.33,.4-.5,.57,0,.68-.16,.86c-.16,.18-.37,.3-.51,.49s-.52,.21-.66,.4,.22,.7,.09,.91-.74,.11-.85,.32,.43,.74,.33,.96-.54,.26-.63,.47-.35,.37-.43,.59,.25,.58,.18,.8-.23,.41-.29,.64-.25,.42-.3,.65-.61,.36-.66,.59-.1,.47-.13,.7,.61,.56,.58,.8,.11,.48,.09,.71-.45,.43-.46,.67-.04,.47-.05,.7,.2,.48,.2,.72-.33,.47-.33,.71c0,.36,.19,.36,.19,.71s-.11,.36-.11,.71,.4,.36,.4,.71-.36,.36-.36,.71-.2,.36-.2,.71,.27,.36,.27,.71,.04,.36,.04,.71-.02,.36-.02,.71,.06,.36,.06,.71-.53,.36-.53,.71,.54,.36,.54,.71-.21,.36-.21,.72-.13,.36-.13,.72,.34,.36,.34,.71-.39,.36-.39,.71,.52,.36,.52,.71-.58,.36-.58,.71-.07,.36-.07,.71,.22,.36,.22,.71-.14,.36-.14,.71,.52,.36,.52,.71-.08,.36-.08,.72-.65,.36-.65,.72,.05,.36,.05,.72,.53,.36,.53,.71-.2,.36-.2,.71-.21,.36-.21,.71,.53,.36,.53,.71-.63,.36-.63,.72,.6,.36,.6,.72-.62,.36-.62,.72,.94,.36,.94,.72-.08,.36-.08,.72-.04,.36-.04,.71-.86,.36-.86,.71,.16,.36,.16,.71,.15,.36,.15,.72,.63,.36,.63,.72-.44,.36-.44,.72,.32,.36,.32,.71-.58,.36-.58,.72,.07,.36,.07,.72,.5,.36,.5,.72-.24,.36-.24,.72,.34,.36,.34,.72-.89,.36-.89,.72,.05,.36,.05,.72,.65,.36,.65,.72-.52,.36-.52,.72,.59,.36,.59,.72-.29,.36-.29,.72,.45,.68,.19,.94-.58-.53-.93-.53-.36,.74-.72,.74-.36-.66-.72-.66-.36-.17-.72-.17-.36,.17-.72,.17-.36,.27-.72,.27-.36,.07-.72,.07-.36-.51-.72-.51-.36,.3-.72,.3-.36,.04-.72,.04-.36-.18-.73-.18-.36-.16-.73-.16-.36,.55-.72,.55-.36,.1-.73,.1-.36-.43-.72-.43-.36,.34-.72,.34-.36-.07-.73-.07-.36,.11-.73,.11-.36-.18-.73-.18-.36-.18-.72-.18-.36,.62-.73,.62-.36-.16-.73-.16-.37-.26-.73-.26-.37,.12-.63-.14-.5-.26-.5-.62,.15-.36,.15-.72-.14-.36-.14-.72,.3-.36,.3-.72,.28-.36,.28-.72,.03-.36,.03-.72,.08-.36,.08-.72-.32-.36-.32-.72-.03-.36-.03-.72,.32-.36,.32-.72-.11-.36-.11-.72-.29-.36-.29-.72,.51-.36,.51-.72-.16-.36-.16-.72-.08-.36-.08-.72-.49-.36-.49-.72,.38-.36,.38-.72,.18-.36,.18-.72-.14-.36-.14-.72,.09-.36,.09-.72-.23-.36-.23-.72-.32-.36-.32-.72-.07-.36-.07-.72,.42-.36,.42-.72,.04-.36,.04-.72,.05-.36,.05-.72,.24-.36,.24-.72-.48-.36-.48-.72,.1-.36,.1-.72-.02-.36-.02-.72,.51-.36,.51-.72-.34-.36-.34-.72,.13-.36,.13-.72-.52-.36-.52-.72,.82-.36,.82-.72-.15-.36-.15-.72-.47-.36-.47-.72,.5-.36,.5-.72,.08-.36,.08-.72-.33-.36-.33-.72-.49-.36-.49-.72,.56-.36,.56-.72-.3-.36-.3-.72-.37-.36-.37-.72,.11-.36,.11-.72,.85-.36,.85-.72-.73-.36-.73-.72,.17-.36,.17-.72,.08-.36,.08-.72-.33-.36-.33-.72,.69-.36,.69-.73-.57-.36-.57-.73,.51-.36,.51-.72-.5-.36-.5-.72,.57-.36,.57-.72-.16-.36-.16-.72-.43-.36-.43-.72-.25-.36-.25-.72,.3-.36,.3-.72-.19-.36-.19-.72,.11-.36,.11-.73,.31-.36,.31-.73-.38-.36-.38-.73,.45-.36,.45-.72-.14-.36-.14-.72,.06-.36,.06-.72,.19-.36,.19-.73-.34-.36-.34-.73,.55-.36,.55-.73-.5-.36-.5-.73-.16-.36-.16-.73,.49-.36,.49-.73-.13-.36-.13-.72-.54-.36-.54-.72,.1-.36,.1-.72,.1-.36,.1-.73-.2-.36-.2-.73,.25-.36,.25-.73-.35-.36-.35-.72,.31-.36,.31-.73-.19-.36-.19-.73,.17-.36,.17-.73,.33-.36,.33-.73-.1-.37-.1-.73-.21-.36-.21-.73,.63-.36,.63-.73-.77-.36-.77-.73-.21-.37-.21-.73,.07-.37,.07-.73-.02-.4,0-.76c.02-.26,.48-.12,.75-.38Z"/><path d="M228.64,84.31c-.23,.02-.04,.02-.28,.04s-.47-.02-.71,0-.48-.2-.72-.18-.42,.93-.66,.95-.51-.66-.75-.65-.47,.02-.71,.03-.46,.38-.7,.38-.46,.31-.7,.32-.49-.83-.73-.82-.46,.74-.7,.75-.48-.2-.72-.2-.48-.35-.72-.34-.47,.38-.72,.38-.48-.34-.72-.34-.48,.32-.73,.32-.5,.33-.74,.32-.5-.11-.74-.12-.46-.78-.7-.79-.51,.45-.76,.43-.49-.05-.73-.07-.48-.16-.72-.19-.49-.02-.73-.05-.55,.34-.79,.31-.44-.39-.67-.44-.52,.08-.76,.03-.53,.06-.76,0-.48-.16-.71-.23-.4-.39-.63-.47-.57,.1-.8,.01-.24-.71-.46-.81-.64,.18-.85,.07-.28-.51-.49-.64-.22-.53-.42-.67-.57-.03-.75-.19c-.18-.15-.3-.36-.47-.52s-.75,.07-.91-.11,.22-.8,.08-.99-.76-.03-.89-.23-.34-.37-.46-.57,.38-.73,.27-.94-.56-.25-.65-.47,.2-.57,.12-.8-.38-.36-.45-.59-.14-.44-.19-.67-.12-.45-.17-.68,.27-.51,.24-.74-.62-.38-.65-.62-.08-.47-.1-.7,.32-.49,.31-.72,.05-.47,.05-.7-.37-.46-.37-.7c0-.36,.02-.36,.02-.72s.54-.36,.54-.72-.48-.36-.48-.72-.4-.36-.4-.72,.98-.36,.98-.72-.24-.36-.24-.72-.22-.36-.22-.72,.13-.36,.13-.72,.1-.36,.1-.72-.74-.36-.74-.72,.25-.36,.25-.72-.11-.36-.11-.72-.05-.36-.05-.72,.52-.36,.52-.72-.15-.36-.15-.72,.13-.36,.13-.72-.19-.36-.19-.72,.32-.36,.32-.72-.19-.36-.19-.72-.04-.36-.04-.72,.28-.36,.28-.72-.46-.36-.46-.72-.29-.36-.29-.72,.38-.36,.38-.72-.33-.36-.33-.72,.13-.36,.13-.72,.38-.36,.38-.72,.07-.36,.07-.72-.26-.36-.26-.72,.06-.36,.06-.72,.21-.36,.21-.72,.18-.36,.18-.72-.42-.36-.42-.72-.32-.36-.32-.72,.66-.36,.66-.72,.13-.36,.13-.72-.89-.36-.89-.72,.3-.36,.3-.72,.43-.36,.43-.72-.33-.36-.33-.72-.19-.36-.19-.72,.44-.36,.44-.72-.02-.36-.02-.72,.21-.36,.21-.72-.52-.36-.52-.72,.59-.36,.59-.72-.95-.36-.95-.72,.61-.36,.61-.72-.59-.36-.59-.73,.78-.36,.78-.72-.2-.36-.2-.72-.45-.36-.45-.72-.13-.36-.13-.73,.03-.36,.03-.73,.14-.36,.14-.73,.78-.68,.53-.94-.57,.71-.92,.71-.35-.8-.7-.8-.35,.11-.7,.11-.35-.1-.7-.1-.35,.52-.7,.52-.35-.6-.7-.6-.35,.5-.7,.5-.35,.06-.7,.06-.35-.17-.7-.17-.35,.21-.7,.21-.35,.19-.71,.19-.35-.5-.71-.5-.12,0-.37-.25,0-.02,0-.37-.49-.36-.49-.71-.25-.36-.25-.72,.52-.36,.52-.71,.07-.36,.07-.71,.05-.36,.05-.71-.38-.36-.38-.72-.28-.36-.28-.72-.02-.36-.02-.72,.43-.36,.43-.72-.12-.36-.12-.72,.01-.36,.01-.72,.41-.36,.41-.71-.39-.36-.39-.72,.56-.36,.56-.72-.59-.36-.59-.72,.17-.19,.42-.45,.07-.66,.42-.66,.35,.09,.7,.09,.35,0,.7,0,.35-.12,.7-.12,.35,.02,.7,.02,.35,.19,.7,.19,.35,.34,.7,.34,.35-.51,.7-.51,.35-.09,.7-.09,.35,.84,.7,.84,.35-.12,.71-.12,.35-.7,.71-.7,.12,.38,.37,.12,0-.02,0-.37,.1-.35,.1-.71-.05-.35-.05-.71,.39-.35,.39-.71-.44-.35-.44-.71-.05-.35-.05-.71,.09-.35,.09-.7,.43-.35,.43-.7,.34-.35,.34-.71-.86-.35-.86-.71,.26-.36,.26-.71-.24-.35-.24-.71,.42-.35,.42-.71,0-.35,0-.71-.34-.36-.34-.71,.08-.36,.08-.71-.02-.36-.02-.71,.53-.36,.53-.71-.35-.36-.35-.71,.14-.36,.14-.71-.43-.35-.43-.71,.17-.36,.17-.71,.34-.36,.34-.71-.47-.36-.47-.72-.08-.58,.17-.84,.48,.04,.84,.04,.36,.34,.72,.34,.36,0,.72,0,.36-.07,.72-.07,.36-.59,.72-.59,.36,.71,.72,.71,.36-.14,.72-.14,.36-.37,.72-.37,.36,.17,.72,.17,.36,.27,.72,.27,.36,.05,.72,.05,.36-.56,.72-.56,.36,.5,.72,.5,.36-.47,.73-.47,.36,.67,.72,.67,.36-.29,.72-.29,.36-.19,.73-.19,.36,.14,.73,.14,.36-.57,.73-.57,.36,.85,.72,.85,.36-.58,.73-.58,.36,.14,.73,.14,.37-.32,.73-.32,.77-.19,1.03,.07-.31,.66-.31,1.02-.11,.35-.11,.71,.31,.35,.31,.71,.04,.35,.04,.71-.35,.35-.35,.71-.31,.35-.31,.71,.2,.35,.2,.7,.2,.35,.2,.7-.1,.35-.1,.71,.06,.35,.06,.71-.02,.36-.02,.71-.38,.35-.38,.71,.87,.35,.87,.71-.67,.35-.67,.71,.28,.36,.28,.71,.37,.36,.37,.71-.14,.36-.14,.71-.59,.36-.59,.71-.11,.36-.11,.71,.16,.36,.16,.71-.16,.35-.16,.71,.41,.36,.41,.71,.03,.36,.03,.71-.2,.36-.2,.72,.23,.21,.48,.47,.1,.32,.46,.32,.35-.52,.7-.52,.35,.9,.7,.9,.35-.08,.7-.08,.35-.46,.71-.46,.35,.52,.71,.52,.35-.3,.71-.3,.35,0,.71,0,.35-.23,.71-.23,.35,.31,.71,.31,.35,.26,.7,.26,.35-.12,.71-.12,.35,.03,.71,.03,.36-.16,.71-.16,.81-.84,1.06-.59-.25,.71-.25,1.06-.15,.36-.15,.71,.24,.36,.24,.72-.5,.36-.5,.71,.02,.36,.02,.71,.03,.36,.03,.71,.53,.36,.53,.72,.02,.36,.02,.72-.18,.36-.18,.72,.16,.36,.16,.72,.2,.36,.2,.72-.34,.36-.34,.72-.54,.36-.54,.71,.43,.36,.43,.72-.15,.36-.15,.72,.58,.36,.58,.72-.1,.58-.35,.84-.47-.01-.82-.01-.35-.54-.7-.54-.35,.56-.7,.56-.35,.23-.7,.23-.35-.71-.71-.71-.35,.68-.71,.68-.35-.63-.71-.63-.35,.28-.71,.28-.35,.39-.71,.39-.35-.05-.71-.05-.35-.63-.7-.63-.35,.32-.71,.32-.35,.13-.71,.13-.36-.26-.71-.26-.31,.02-.56,.27-.54,.2-.54,.56,.01,.36,.01,.71,.3,.36,.3,.71,.31,.36,.31,.71-.55,.36-.55,.71,.5,.36,.5,.71-.65,.36-.65,.72,.39,.36,.39,.72-.08,.36-.08,.72-.05,.36-.05,.72,0,.36,0,.72,.36,.36,.36,.72,.11,.36,.11,.72,.1,.36,.1,.72-.64,.36-.64,.72-.07,.36-.07,.72,.59,.36,.59,.72-.14,.36-.14,.72,.12,.36,.12,.72-.44,.36-.44,.72,.12,.36,.12,.72,.39,.36,.39,.72-.42,.36-.42,.72-.22,.36-.22,.72,.33,.36,.33,.72,.27,.36,.27,.72-.58,.36-.58,.72,.68,.36,.68,.72-.31,.36-.31,.72-.33,.36-.33,.72,.66,.36,.66,.72-.28,.36-.28,.72,0,.36,0,.72-.59,.36-.59,.72,.08,.36,.08,.72,.48,.36,.48,.72-.08,.36-.08,.72-.29,.36-.29,.72,.57,.36,.57,.72-.57,.36-.57,.72,.73,.36,.73,.72-.38,.36-.38,.72-.19,.36-.19,.72,.43,.36,.43,.72-.1,.36-.1,.72-.13,.36-.13,.72-.52,.36-.52,.72,0,.36,0,.72,.69,.36,.69,.73,.17,.36,.17,.73-.41,.36-.41,.73-.01,.36-.01,.73c0,.25,.23,.46,.26,.68,.03,.25-.25,.53-.19,.74,.06,.24,.32,.4,.43,.59,.11,.22,.16,.47,.32,.63s.55-.04,.76,.07c.18,.1,.24,.5,.5,.58,.21,.06,.4,.32,.65,.37,.22,.04,.5-.19,.75-.16,.22,.03,.46,.02,.72,.04,.23,.02,.46,.05,.71,.07,.23,.01,.47-.03,.72-.02,.23,0,.46,.54,.71,.55,.23,0,.48-.54,.73-.54,.36,0,.36,.21,.71,.21s.36,.13,.71,.13,.36-.34,.71-.34,.36,.39,.72,.39,.66-.69,.92-.44-.49,.56-.49,.91-.07,.36-.07,.71,.22,.36,.22,.71-.14,.36-.14,.72,.52,.36,.52,.71-.08,.36-.08,.71-.65,.36-.65,.71,.05,.36,.05,.72,.53,.36,.53,.72-.2,.36-.2,.72-.21,.36-.21,.72,.53,.36,.53,.72-.63,.36-.63,.72,.6,.36,.6,.72-.62,.36-.62,.72,.94,.36,.94,.72,.02,.52-.1,.86-.73,.1-.84,.45Z"/><path d="M250.2,85.32c-.25,0-.49,.3-.73,.29s-.48-.06-.72-.08-.47-.25-.71-.27-.57,.87-.81,.84-.41-.73-.65-.76-.48-.07-.71-.11-.54,.27-.78,.23-.55,.19-.78,.14-.28-.93-.51-.99-.66,.58-.9,.51-.41-.34-.64-.42-.34-.49-.57-.58-.59,.18-.81,.08-.31-.5-.53-.6-.58,.08-.79-.03-.6,.06-.81-.06-.38-.34-.59-.47,0-.9-.2-1.03-.67,.12-.86-.03-.38-.3-.57-.46-.3-.4-.48-.56-.39-.29-.56-.46c-.18-.17-.65-.05-.82-.22s-.11-.58-.28-.76-.46-.25-.62-.44-.46-.28-.6-.47-.27-.42-.41-.62-.07-.55-.2-.76-.51-.28-.63-.49,.26-.7,.15-.92-.61-.25-.71-.47,.09-.57,0-.8,.13-.56,.05-.79-.45-.35-.52-.58-.06-.48-.13-.72-.69-.33-.74-.57,.57-.62,.52-.86-.67-.37-.71-.61-.16-.48-.19-.72,.62-.56,.6-.8-.44-.45-.45-.69,.38-.5,.37-.75-.26-.48-.26-.72,0-.48,0-.72,0-.48,0-.72,.39-.45,.41-.69-.52-.52-.5-.76,.02-.48,.05-.72,.42-.43,.45-.66,.15-.45,.19-.69-.26-.54-.21-.77,.12-.47,.18-.69,.64-.32,.71-.54-.33-.59-.25-.82-.23-.59-.14-.82,1.08-.09,1.17-.31-.04-.52,.06-.73,0-.52,.11-.73,.33-.36,.44-.57,.32-.36,.44-.56-.37-.8-.24-1,.48-.26,.62-.45,.2-.46,.35-.64,.27-.41,.42-.59,.71-.01,.87-.19c.16-.17,.22-.45,.39-.62s.43-.24,.61-.4,.23-.46,.41-.62,.57-.06,.75-.2,.26-.44,.45-.58,.37-.31,.56-.44,.55-.02,.75-.15,.17-.64,.38-.76,.28-.49,.5-.6,.6,.12,.82,.01,.29-.51,.51-.61,.49-.08,.72-.17,.58,.17,.81,.08,.47-.1,.69-.18,.36-.41,.59-.48,.47-.08,.7-.15,.51,.07,.74,0,.5,.05,.73,0,.36-.52,.6-.57,.4-.42,.64-.47,.59,.56,.83,.52,.48,.05,.72,0,.34-.96,.59-.99c.36-.05,.4,.25,.75,.2s.42,.38,.77,.33,.31-.37,.67-.42,.33-.23,.69-.28,.42,.39,.77,.34,.35-.07,.71-.12,.39,.16,.74,.11,.29-.57,.64-.62,.44,.54,.8,.49,.23-.99,.59-1.04,.44,.55,.8,.51,.28-.63,.63-.68,.46,.72,.82,.67,.33-.24,.69-.29,.3-.49,.66-.54,.34-.18,.7-.23c.24-.03,.47-.04,.7-.07s.48,.06,.71,.02,.58,.52,.81,.47,.3-.88,.52-.93,.64,.68,.87,.62,.44-.23,.66-.29,.49-.03,.71-.1,.29-.64,.51-.71,.66,.4,.87,.32,.25-.64,.46-.73,.4-.25,.61-.35c.23-.11,.51-.08,.71-.24s.22-.46,.39-.65c.16-.18,.12-.46,.26-.68,.13-.21,.67-.18,.78-.42,.09-.2,.54-.3,.61-.5s0-.5,.04-.71-.4-.52-.37-.74-.22-.42-.22-.64,.5-.45,.48-.67c-.03-.26-.01-.54-.07-.79s-.1-.54-.19-.78-.55-.31-.68-.54-.48-.25-.63-.46-.3-.34-.48-.52-.07-.65-.27-.81-.47-.2-.69-.34c-.2-.13-.4-.25-.62-.37s-.27-.58-.5-.68-.6,.18-.83,.1-.3-.69-.54-.76-.62,.44-.87,.38-.37-.62-.62-.67-.61,.69-.86,.65-.46-.15-.71-.18-.48-.06-.73-.08-.48,.09-.73,.08-.48-.04-.73-.05-.48-.2-.73-.2c-.23,0-.47-.34-.7-.33s-.43,.53-.66,.55-.44,.13-.67,.16-.58-.77-.8-.73-.45,.21-.67,.25-.27,.79-.49,.85-.41,.14-.63,.21-.46,.02-.67,.1-.45,.09-.65,.19-.37,.25-.56,.37-.6-.07-.78,.06-.09,.62-.26,.77c-.18,.15-.29,.33-.45,.49s-.36,.26-.51,.44-.63,.11-.76,.3-.55,.24-.67,.44,.54,.8,.45,1.01-.42,.31-.5,.53,.09,.5,.02,.72-.53,.34-.57,.57-.09,.46-.13,.69,.27,.49,.25,.73-.24,.62-.25,.86c-.34,.11-.42,.03-.78,.03s-.36-.53-.72-.53-.36,.35-.72,.35-.36-.14-.72-.14-.36,.43-.72,.43-.36-.17-.72-.17-.36-.34-.72-.34-.36,.47-.72,.47-.36-.12-.72-.12-.36-.09-.72-.09-.36-.34-.72-.34-.36,0-.72,0-.36,.07-.73,.07-.36,.59-.72,.59-.36-.71-.72-.71-.36,.14-.73,.14-.36,.37-.73,.37-.36-.17-.72-.17-.36-.27-.72-.27-.36-.05-.73-.05-.36,.56-.73,.56-.37-.5-.73-.5-.46,.58-.8,.46c.01-.25,.54-.67,.56-.92s-.26-.51-.24-.75-.14-.51-.12-.75,.19-.47,.22-.71-.49-.57-.46-.81,.92-.34,.96-.58-.48-.59-.43-.82,.24-.45,.29-.68-.19-.56-.13-.79,.08-.5,.15-.73,.56-.34,.64-.57,.26-.42,.34-.65-.12-.57-.03-.79,.15-.47,.25-.69,.52-.3,.63-.51,.49-.29,.6-.5,.05-.51,.17-.72,.08-.51,.21-.72,.34-.35,.48-.55,.22-.43,.37-.62,.3-.37,.45-.56,.59-.12,.75-.3-.33-.95-.16-1.12,.82,.12,.99-.05,.15-.54,.33-.7,.12-.6,.31-.76,.47-.21,.66-.36c.19-.15,.74,.18,.94,.03s.44-.19,.65-.32,.31-.39,.51-.52,.48-.11,.69-.24,.21-.6,.43-.71,.41-.25,.63-.36,.52-.03,.74-.13,.21-.73,.43-.83,.61,.2,.84,.11,.27-.66,.5-.75,.76,.69,.99,.61,.43-.23,.66-.3,.33-.58,.57-.65,.6,.37,.83,.31,.39-.41,.63-.46,.47-.1,.71-.15,.43-.32,.67-.37,.53,.21,.77,.17,.52,.17,.76,.14,.45-.19,.7-.23,.48-.04,.72-.07,.46-.22,.7-.25,.4-.78,.65-.81,.52,.34,.77,.32,.5,.11,.74,.09,.47-.27,.72-.28,.51,.47,.76,.46,.48-.05,.73-.05,.48-.04,.73-.05,.48-.54,.73-.54,.5-.02,.75-.02,.49,.18,.74,.19,.5-.15,.74-.15,.5-.18,.74-.17,.48,.36,.72,.37,.45,.57,.7,.58,.52-.4,.76-.38,.47,.19,.71,.21,.55-.53,.79-.5,.45,.36,.69,.39,.48,.13,.72,.17,.39,.61,.63,.65,.58-.47,.82-.42,.53-.13,.76-.08,.32,.8,.56,.85,.64-.54,.88-.48,.31,.73,.54,.8,.55-.14,.78-.06,.59-.22,.82-.14,.45,.21,.68,.29,.23,.76,.45,.85,.57-.11,.79-.02,.5,.08,.72,.19,.32,.45,.54,.56,.59-.07,.8,.04,.12,.76,.33,.88,.41,.23,.62,.36,.56,0,.76,.14,.58,.03,.77,.17c.2,.14,.05,.73,.24,.88s.69-.09,.87,.07-.07,.8,.11,.96,.61,.03,.78,.2,.27,.39,.44,.57,.28,.38,.44,.56,.3,.36,.45,.55,.58,.16,.72,.35,.37,.34,.5,.54,.35,.36,.47,.57-.32,.73-.21,.94,.15,.44,.25,.66,.74,.19,.83,.41,.05,.5,.14,.72,.27,.42,.34,.65-.28,.58-.22,.81,.23,.43,.29,.66,.48,.39,.53,.63-.34,.54-.3,.78-.16,.49-.13,.73,.37,.44,.39,.68,.3,.47,.3,.71-.57,.49-.57,.73c0,.36,.68,.36,.68,.72s-.31,.36-.31,.72-.33,.36-.33,.72,.66,.36,.66,.72-.28,.36-.28,.72,0,.36,0,.72-.59,.36-.59,.72,.08,.36,.08,.72,.48,.36,.48,.72-.08,.36-.08,.72-.29,.36-.29,.72,.57,.36,.57,.72-.57,.36-.57,.72,.73,.36,.73,.72-.38,.36-.38,.72-.19,.36-.19,.72,.43,.36,.43,.72-.1,.36-.1,.72-.13,.36-.13,.72-.52,.36-.52,.72,0,.36,0,.72,.69,.36,.69,.72,.17,.36,.17,.72-.41,.36-.41,.72-.01,.36-.01,.72,.22,.36,.22,.72-.32,.36-.32,.72,.19,.36,.19,.72-.11,.36-.11,.72,.4,.36,.4,.72-.36,.36-.36,.72-.2,.36-.2,.72,.27,.36,.27,.72,.04,.36,.04,.72-.02,.36-.02,.72,.06,.36,.06,.72-.53,.36-.53,.73,.54,.36,.54,.72-.21,.36-.21,.72-.13,.36-.13,.72,.34,.36,.34,.73-.39,.36-.39,.72,.52,.36,.52,.72-.58,.36-.58,.73-.07,.36-.07,.73,.22,.36,.22,.73-.14,.36-.14,.72,.52,.36,.52,.73-.08,.36-.08,.73-.65,.37-.65,.73,.05,.37,.05,.73c0,.24,.53,.47,.53,.7,0,.24-.19,.48-.18,.7,0,.24-.19,.49-.18,.71,.01,.24,.55,.44,.57,.67,.02,.24-.59,.53-.57,.76,.03,.24,.65,.41,.68,.63,.03,.24-.54,.58-.49,.8,.05,.24,1.02,.25,1.07,.46,.07,.24,.05,.43,.13,.63,.09,.21,.13,.38,.24,.58s-.45,.88-.3,1.06,.46,.27,.63,.43,.46,.2,.65,.34,.71-.28,.91-.16c.19,.11,.18,.6,.4,.7,.02,.02,.33,.05,.33,.08,0,.39-.58,.39-.58,.79s.07,.39,.07,.79,.68,.72,.41,1.01c-.24,.27-.6-.13-.96-.13s-.36,.34-.72,.34-.36-.89-.72-.89-.36,.05-.72,.05-.36,.65-.72,.65-.36-.52-.72-.52-.36,.59-.72,.59-.36-.29-.72-.29-.36,.28-.72,.28-.36-.62-.72-.62-.36,.74-.72,.74-.36-.66-.73-.66-.36-.17-.73-.17-.36,.17-.72,.17-.36,.27-.72,.27-.36,.07-.72,.07-.36-.51-.72-.51-.36,.3-.72,.3-.36,.04-.72,.04-.36-.18-.72-.18-.36-.16-.72-.16-.36,.55-.72,.55-.36,.1-.72,.1-.36-.43-.72-.43-.36,.34-.73,.34-.37-.04-.73-.07c-.03,0-.17-.07-.18-.1-.07-.23,.04-.51-.02-.74s.05-.51-.01-.75-.72-.32-.78-.56,.04-.51-.01-.75,.15-.53,.11-.77,.08-.51,.04-.74-.62-.38-.66-.62,.07-.51,.03-.75-.21-.46-.24-.7,.24-.52,.21-.76,.22-.53,.2-.77c-.02-.07-.25-.32-.32-.3-.16,.19-.48,.39-.64,.57s-.08,.58-.25,.76-.31,.38-.48,.55-.56,.12-.74,.29-.27,.42-.45,.58-.17,.55-.35,.71-.7-.07-.89,.08-.27,.43-.46,.58-.34,.36-.53,.5-.11,.69-.31,.83-.62-.04-.82,.1-.5,.11-.71,.24-.34,.37-.55,.5-.46,.16-.68,.28-.32,.43-.54,.54-.3,.51-.52,.61-.42,.28-.65,.37-.62-.19-.84-.1-.47,.14-.7,.22-.47,.11-.7,.19-.53-.08-.76,0-.33,.6-.57,.67-.5,.03-.73,.09-.47,.14-.71,.19-.57-.4-.81-.35-.41,.42-.66,.46-.49-.05-.74-.02-.42,.58-.66,.6-.56-.77-.81-.75-.46,.18-.71,.2-.46,.5-.7,.51-.5-.48-.75-.48-.48-.08-.72-.08Zm21.35-25.57c0-.34-.3-.34-.3-.69s.05-.34,.05-.69,.23-.34,.23-.69-.91-.34-.91-.69,.68-.34,.68-.69,0-.34,0-.69-.36-.34-.36-.69-.29-.34-.29-.69,.84-.34,.84-.69-.73-.35-.73-.69,.33-.32,.21-.65c-.2,.11-.4-.02-.61,.09s-.25,.55-.47,.65-.56-.12-.78-.03-.31,.47-.54,.56-.33,.48-.56,.55-.48,.06-.71,.13-.67-.58-.9-.52-.31,.59-.54,.65-.46,.11-.69,.17-.48,0-.71,.05-.45,.14-.68,.2-.38,.51-.62,.56c-.35,.07-.42-.24-.77-.18s-.32,.24-.68,.31-.32,.24-.68,.31-.36,.03-.72,.1-.4-.18-.76-.12-.3,.35-.66,.42-.46-.49-.82-.43-.28,.49-.64,.56-.42-.24-.78-.18c-.23,.04-.53-.24-.76-.19s-.4,.4-.62,.46-.48,.04-.7,.11-.27,.69-.48,.76-.68-.5-.89-.41-.2,.72-.41,.81-.37,.27-.57,.38-.74-.37-.94-.26-.18,.59-.37,.72-.62-.04-.8,.1-.2,.5-.36,.65-.33,.34-.48,.52-.29,.37-.43,.56-.58,.2-.7,.41,.26,.68,.16,.89-.15,.42-.23,.65-.49,.34-.54,.57-.18,.46-.21,.69,.29,.51,.28,.75-.04,.46-.04,.7c0,.25-.54,.52-.52,.77s.51,.47,.54,.71,.46,.42,.51,.66-.85,.71-.79,.94,.38,.44,.46,.67,.39,.39,.49,.61,.12,.51,.25,.72,.2,.49,.35,.69,.87-.1,1.04,.08c.17,.18,.14,.5,.32,.66s.42,.2,.62,.33,.4,.2,.61,.31,.2,.68,.42,.77,.5,.03,.74,.1,.43,.25,.68,.3,.5-.1,.75-.07,.45,.37,.7,.39,.49-.17,.74-.17,.48-.04,.72-.05,.5,.27,.74,.25,.45-.49,.68-.51,.43-.33,.67-.37,.52,.31,.76,.27,.4-.41,.63-.46,.48,.02,.71-.04,.56,.24,.79,.17,.49-.08,.71-.16,.36-.41,.58-.5,.47-.12,.68-.22,.53-.02,.74-.13,.52-.07,.73-.19,.2-.6,.4-.73,.21-.52,.41-.66,.78,.26,.97,.11,.47-.2,.65-.36-.23-.98-.05-1.14,.54-.1,.71-.27,.65-.05,.81-.22,.08-.57,.23-.76c.15-.18,.14-.48,.28-.71,.13-.2,.64-.2,.76-.44,.11-.21,.2-.47,.3-.71,.09-.22,.39-.4,.47-.65,.08-.23-.34-.64-.26-.89,.07-.24,.71-.33,.77-.56s-.81-.69-.76-.93,.69-.37,.73-.61-.51-.56-.49-.8,.82-.42,.83-.67,.18-.51,.18-.75Z"/><path d="M352.19,60.12c-.03,.24-.06,.03-.09,.27s-.11,.47-.15,.71-.3,.44-.33,.68,.81,.63,.77,.87-.76,.35-.81,.59-.1,.47-.15,.71,.24,.55,.18,.79,.17,.55,.1,.78-.94,.24-1,.47,.56,.68,.49,.91-.35,.4-.42,.63-.49,.34-.57,.56,.18,.59,.1,.81-.49,.32-.59,.54,.1,.57,0,.79,.09,.59-.02,.8-.31,.4-.42,.61-.9,.07-1.01,.28,.18,.65,.06,.86-.26,.41-.39,.61-.36,.34-.49,.54-.24,.42-.38,.62,.05,.64-.1,.83-.55,.19-.7,.38-.17,.49-.33,.67-.19,.49-.35,.67-.36,.34-.53,.52-.52,.17-.69,.34-.15,.55-.33,.71-.74-.09-.92,.07-.08,.64-.26,.79-.57,.06-.75,.2-.57,.02-.76,.16-.2,.52-.39,.66-.43,.2-.63,.33-.08,.75-.29,.87-.76-.34-.97-.22-.12,.75-.33,.86-.38,.31-.59,.42-.73-.4-.94-.29-.26,.57-.47,.66-.59-.18-.81-.09-.34,.41-.56,.49-.44,.18-.66,.26-.44,.17-.66,.25-.55-.2-.78-.13-.29,.67-.52,.73-.45,.15-.68,.21-.54-.23-.77-.18-.47,.03-.7,.08-.39,.45-.63,.49-.47,.07-.71,.1-.55-.46-.78-.43-.4,.54-.63,.57-.43,.46-.66,.48-.56-.93-.8-.91-.45,.27-.68,.29-.45,.25-.69,.26-.48-.11-.71-.1-.47-.09-.71-.08-.47,.75-.71,.75-.49-.26-.73-.26-.49,.1-.74,.09-.5,.03-.74,.02-.46-.55-.71-.56-.5,.11-.74,.09-.48-.17-.72-.19-.51,.14-.75,.11-.44-.38-.69-.41-.51,.12-.75,.08-.49-.04-.73-.08-.43-.37-.66-.41-.57,.35-.81,.3-.55,.17-.78,.11-.39-.49-.62-.55-.56,.19-.8,.12-.44-.26-.67-.34-.35-.51-.58-.59-.43-.23-.66-.31-.55,.08-.77-.01-.43-.24-.65-.34-.36-.39-.58-.49-.36-.37-.57-.47-.62,.15-.83,.04-.59,.05-.8-.07-.09-.82-.29-.94-.33-.36-.54-.49-.9,.47-1.1,.34-.23-.53-.43-.67-.13-.63-.32-.78-.58-.04-.77-.2-.5-.17-.68-.33-.07-.65-.25-.82-.37-.31-.54-.48-.19-.48-.36-.66-.71,.01-.88-.17c-.16-.18,.12-.74-.03-.93s-1.04,.25-1.19,.06,.17-.76,.03-.94-.76-.03-.9-.22,.35-.84,.22-1.04-.43-.28-.56-.48-.64-.16-.76-.37-.37-.35-.49-.56-.22-.44-.33-.65-.11-.49-.22-.7,.33-.7,.22-.91-.93-.09-1.03-.31,.54-.76,.44-.98-.29-.39-.38-.61-.08-.48-.16-.7-.65-.27-.73-.49,.41-.64,.34-.87-.62-.3-.69-.53-.2-.44-.26-.67,.04-.5-.03-.74-.32-.41-.38-.64-.3-.42-.35-.66,.39-.57,.34-.81,.28-.54,.24-.77-.23-.44-.28-.67-.56-.39-.6-.63-.32-.44-.35-.68,.44-.54,.41-.78,.02-.48-.01-.72,0-.48-.02-.72-.43-.44-.45-.68-.31-.46-.33-.7-.05-.48-.07-.72,.4-.5,.39-.74-.14-.47-.15-.72,0-.48,0-.73,.4-.49,.39-.73-.4-.48-.4-.73,.56-.48,.57-.72-.58-.49-.57-.74,.54-.47,.55-.71-.76-.52-.75-.76,.11-.49,.13-.73,.04-.49,.06-.73-.08-.5-.06-.74,.07-.49,.09-.73,.25-.47,.28-.71,.4-.44,.44-.68-.44-.56-.4-.8-.01-.5,.03-.74,.91-.33,.95-.57-.03-.5,.02-.73-.59-.62-.53-.86,.1-.48,.15-.72,.26-.44,.32-.67,.22-.45,.29-.68,.09-.48,.16-.71,.51-.35,.59-.58-.26-.6-.18-.83,.12-.48,.21-.7,.25-.43,.34-.65,.58-.29,.67-.51,.5-.3,.59-.52-.58-.8-.47-1.02,.45-.32,.56-.54,0-.55,.12-.76,.6-.23,.72-.43,.24-.42,.36-.62-.04-.59,.09-.8,.33-.37,.46-.57,.26-.41,.39-.61,.7-.09,.85-.28,0-.6,.15-.79,.4-.3,.55-.48-.02-.65,.13-.83,.44-.26,.6-.44c.16-.18,.58-.13,.74-.31s0-.68,.17-.85,.44-.26,.61-.43,.41-.27,.59-.44,.59-.07,.77-.23,.37-.3,.56-.46,.33-.36,.52-.51,.03-.76,.23-.91,.8,.29,1,.15,.32-.39,.52-.52,.21-.58,.41-.71,.5-.11,.71-.23,.55,0,.76-.12,.44-.18,.66-.29,.19-.72,.41-.82,.65,.25,.87,.15,.26-.63,.48-.72,.69,.44,.92,.36,.35-.44,.58-.52,.39-.34,.62-.41,.5-.02,.73-.09,.31-.68,.55-.75,.68,.7,.92,.64,.34-.68,.57-.73,.5,.03,.74-.02,.42-.41,.66-.45,.48-.13,.72-.17,.54,.36,.78,.33,.49,.05,.73,.02,.45-.36,.69-.38,.48-.08,.73-.1,.51,.32,.75,.31,.49,.29,.74,.28,.47-.21,.72-.22,.49-.2,.73-.2,.49,.1,.73,.11,.49-.05,.73-.05,.48,.03,.73,.05,.46,.41,.7,.42,.55-.84,.79-.82,.42,.71,.66,.74,.51-.23,.75-.2,.53-.3,.77-.26,.46,.21,.7,.25,.37,.67,.61,.71,.45,.19,.68,.24,.5-.06,.73,0,.43,.26,.66,.32,.57-.28,.8-.21,.47,.11,.7,.18,.4,.34,.62,.41,.65-.39,.88-.31,.31,.56,.53,.65,.65-.3,.87-.21,.09,1.02,.31,1.12,.46,.12,.68,.22,.63-.2,.85-.09,.18,.68,.39,.8,.56-.03,.77,.09,.41,.25,.61,.38,.53,.06,.73,.2,.23,.52,.42,.66,.23,.49,.43,.63,.45,.19,.64,.33,.35,.32,.54,.47,.47,.18,.65,.33c.18,.16,.86-.23,1.03-.06s.09,.62,.27,.79,.24,.45,.41,.62,.51,.19,.67,.36-.04,.69,.12,.87,.33,.34,.48,.53,.32,.35,.47,.54,.72,.07,.86,.26,.3,.39,.44,.59,.12,.51,.25,.71,.4,.33,.52,.54,.42,.33,.54,.54-.06,.59,.05,.81-.27,.67-.16,.88,.6,.25,.69,.47,.05,.5,.15,.72,.72,.24,.81,.47-.12,.56-.04,.79,.09,.48,.16,.71-.38,.61-.32,.84,.67,.32,.73,.55,.34,.42,.39,.66-.6,.61-.55,.85,.76,.35,.8,.59-.54,.57-.51,.81,.34,.44,.37,.68,.44,.44,.46,.68,0,.49,.01,.74-.39,.22-.38,.46c-.33,.12-.25,.3-.61,.3s-.35,.13-.71,.13-.35-.26-.71-.26-.35,.34-.71,.34-.35-.6-.71-.6-.35,.01-.71,.01-.35,.3-.7,.3-.35,.31-.7,.31-.35-.55-.7-.55-.35,.5-.71,.5-.35-.65-.71-.65-.35,.39-.71,.39-.35-.08-.7-.08-.35-.05-.71-.05-.35,0-.71,0-.35,.36-.71,.36-.35,.11-.71,.11-.35,.1-.71,.1-.35-.64-.71-.64-.35-.07-.71-.07-.35,.59-.71,.59-.36-.14-.71-.14-.36,.12-.71,.12-.36-.44-.71-.44-.34,.24-.68,.13c-.01-.25-.35-.37-.38-.62s.37-.54,.33-.78,.13-.54,.08-.78-.43-.42-.5-.65-.39-.39-.47-.62,.37-.68,.27-.9-.82-.16-.93-.38,.05-.58-.08-.79,0-.61-.13-.81-.82,0-.97-.19-.1-.55-.27-.73-.34-.35-.52-.52c-.17-.16,.03-.77-.15-.91s-.44-.25-.62-.38-.66,.12-.86,0-.36-.31-.56-.42-.29-.48-.51-.57-.65,.34-.87,.26-.25-.7-.47-.77-.64,.57-.87,.52-.36-.48-.59-.52-.43-.27-.66-.3-.5,.37-.74,.35-.45-.13-.68-.14-.46-.15-.69-.15c-.25,0-.52-.51-.76-.5s-.52,.02-.76,.05-.41,.74-.65,.78-.44,.24-.68,.3-.57-.29-.8-.22-.48,.13-.71,.21-.38,.38-.6,.47-.58-.09-.8,.03-.34,.4-.55,.53-.47,.17-.67,.32-.14,.6-.33,.76-.6,.04-.78,.21-.5,.2-.67,.38-.12,.55-.28,.74-.27,.4-.42,.6-.29,.38-.43,.59c-.13,.2-.2,.43-.33,.64s-.7,.16-.81,.38,.27,.67,.16,.89-.39,.35-.49,.57-.3,.4-.39,.62,.16,.57,.08,.8-.52,.33-.59,.57,.36,.6,.3,.83-.68,.32-.74,.55-.18,.46-.23,.69,.12,.52,.07,.76-.22,.45-.26,.69,.44,.55,.4,.79-.15,.46-.18,.7-.7,.4-.72,.64,0,.49-.02,.73,.48,.52,.47,.76-.23,.47-.24,.71-.23,.47-.24,.71,.51,.5,.5,.74-.64,.47-.64,.71,.59,.49,.59,.74-.62,.48-.61,.72,.95,.46,.96,.69-.06,.47-.05,.7-.02,.47,0,.7-.83,.53-.81,.76,.2,.47,.22,.7,.19,.46,.22,.69,.68,.39,.71,.62-.37,.52-.34,.75,.39,.41,.43,.64-.49,.57-.44,.8,.16,.46,.21,.68,.59,.35,.65,.57-.11,.51-.05,.74,.46,.35,.53,.57-.7,.73-.62,.95,.21,.44,.29,.66,.78,.19,.87,.41-.28,.65-.17,.85,.73,.15,.84,.36-.02,.55,.1,.74,.48,.24,.61,.44c.14,.21-.23,.76-.08,.96s.87-.07,1.03,.11-.17,.81,0,.98,.24,.48,.42,.65,.5,.21,.69,.36,.55,.09,.75,.23,.44,.21,.65,.33,.19,.69,.41,.8,.58-.06,.81,.04,.47,.15,.7,.23,.42,.32,.66,.39,.45,.28,.69,.33,.58-.45,.83-.42,.48-.04,.73-.02,.45,.47,.7,.48,.49-.32,.74-.32,.49,.07,.74,.05,.48-.14,.72-.17,.51,.11,.75,.07,.53,.08,.77,.02,.3-.72,.53-.8,.5,0,.72-.1,.55,.05,.77-.06,.53-.07,.74-.19,.13-.7,.33-.84,.47-.15,.67-.3,.28-.4,.46-.57,.56-.1,.73-.28,.55-.17,.71-.35,.36-.36,.51-.55,.37-.36,.51-.56,0-.59,.14-.8,.22-.44,.34-.66,.51-.3,.61-.53,.1-.5,.19-.73-.1-.56-.02-.79,.64-.32,.71-.56-.03-.53,.03-.77,.03-.5,.08-.75-.4-.56-.36-.8,.42-.4,.45-.65c.33-.11,.34,.19,.69,.19s.35-.14,.71-.14,.35,.09,.71,.09,.35-.23,.71-.23,.35-.32,.71-.32,.35-.07,.71-.07,.35,.42,.7,.42,.35,.04,.7,.04,.35,.05,.7,.05,.35,.24,.71,.24,.35-.48,.71-.48,.35,.1,.71,.1,.35-.02,.7-.02,.35,.51,.71,.51,.35-.34,.71-.34,.35,.13,.71,.13,.35-.52,.71-.52,.35,.82,.71,.82,.35-.15,.71-.15,.35-.47,.71-.47,.35,.5,.71,.5,.36,.08,.71,.08,.36-.33,.71-.33,.49-.58,.83-.47,.11,.66,.44,.78Z"/><path d="M387.9,84.31c-.23,.02-.04,.02-.28,.04s-.47-.02-.71,0-.48-.2-.72-.18-.42,.93-.66,.95-.51-.66-.75-.65-.47,.02-.71,.03-.46,.38-.7,.38-.46,.31-.7,.32-.49-.83-.73-.82-.46,.74-.7,.75-.48-.2-.72-.2-.48-.35-.72-.34-.47,.38-.72,.38-.48-.34-.72-.34-.48,.32-.73,.32-.5,.33-.74,.32-.5-.11-.74-.12-.46-.78-.7-.79-.51,.45-.76,.43-.49-.05-.73-.07-.48-.16-.72-.19-.49-.02-.73-.05-.55,.34-.79,.31-.44-.39-.67-.44-.52,.08-.76,.03-.53,.06-.76,0-.48-.16-.71-.23-.4-.39-.63-.47-.57,.1-.8,.01-.24-.71-.46-.81-.64,.18-.85,.07-.28-.51-.49-.64-.22-.53-.42-.67-.57-.03-.75-.19c-.18-.15-.3-.36-.47-.52s-.75,.07-.91-.11,.22-.8,.08-.99-.76-.03-.89-.23-.34-.37-.46-.57,.38-.73,.27-.94-.56-.25-.65-.47,.2-.57,.12-.8-.38-.36-.45-.59-.14-.44-.19-.67-.12-.45-.17-.68,.27-.51,.24-.74-.62-.38-.65-.62-.08-.47-.1-.7,.32-.49,.31-.72,.05-.47,.05-.7-.37-.46-.37-.7c0-.36,.02-.36,.02-.72s.54-.36,.54-.72-.48-.36-.48-.72-.4-.36-.4-.72,.98-.36,.98-.72-.24-.36-.24-.72-.22-.36-.22-.72,.13-.36,.13-.72,.1-.36,.1-.72-.74-.36-.74-.72,.25-.36,.25-.72-.11-.36-.11-.72-.05-.36-.05-.72,.52-.36,.52-.72-.15-.36-.15-.72,.13-.36,.13-.72-.19-.36-.19-.72,.32-.36,.32-.72-.19-.36-.19-.72-.04-.36-.04-.72,.28-.36,.28-.72-.46-.36-.46-.72-.29-.36-.29-.72,.38-.36,.38-.72-.33-.36-.33-.72,.13-.36,.13-.72,.38-.36,.38-.72,.07-.36,.07-.72-.26-.36-.26-.72,.06-.36,.06-.72,.21-.36,.21-.72,.18-.36,.18-.72-.42-.36-.42-.72-.32-.36-.32-.72,.66-.36,.66-.72,.13-.36,.13-.72-.89-.36-.89-.72,.3-.36,.3-.72,.43-.36,.43-.72-.33-.36-.33-.72-.19-.36-.19-.72,.44-.36,.44-.72-.02-.36-.02-.72,.21-.36,.21-.72-.52-.36-.52-.72,.59-.36,.59-.72-.95-.36-.95-.72,.61-.36,.61-.72-.59-.36-.59-.73,.78-.36,.78-.72-.2-.36-.2-.72-.45-.36-.45-.72-.13-.36-.13-.73,.03-.36,.03-.73,.14-.36,.14-.73,.78-.68,.53-.94-.57,.71-.92,.71-.35-.8-.7-.8-.35,.11-.7,.11-.35-.1-.7-.1-.35,.52-.7,.52-.35-.6-.7-.6-.35,.5-.7,.5-.35,.06-.7,.06-.35-.17-.7-.17-.35,.21-.7,.21-.35,.19-.71,.19-.35-.5-.71-.5-.12,0-.37-.25,0-.02,0-.37-.49-.36-.49-.71-.25-.36-.25-.72,.52-.36,.52-.71,.07-.36,.07-.71,.05-.36,.05-.71-.38-.36-.38-.72-.28-.36-.28-.72-.02-.36-.02-.72,.43-.36,.43-.72-.12-.36-.12-.72,.01-.36,.01-.72,.41-.36,.41-.71-.39-.36-.39-.72,.56-.36,.56-.72-.59-.36-.59-.72,.17-.19,.42-.45,.07-.66,.42-.66,.35,.09,.7,.09,.35,0,.7,0,.35-.12,.7-.12,.35,.02,.7,.02,.35,.19,.7,.19,.35,.34,.7,.34,.35-.51,.7-.51,.35-.09,.7-.09,.35,.84,.7,.84,.35-.12,.71-.12,.35-.7,.71-.7,.12,.38,.37,.12,0-.02,0-.37,.1-.35,.1-.71-.05-.35-.05-.71,.39-.35,.39-.71-.44-.35-.44-.71-.05-.35-.05-.71,.09-.35,.09-.7,.43-.35,.43-.7,.34-.35,.34-.71-.86-.35-.86-.71,.26-.36,.26-.71-.24-.35-.24-.71,.42-.35,.42-.71,0-.35,0-.71-.34-.36-.34-.71,.08-.36,.08-.71-.02-.36-.02-.71,.53-.36,.53-.71-.35-.36-.35-.71,.14-.36,.14-.71-.43-.35-.43-.71,.17-.36,.17-.71,.34-.36,.34-.71-.47-.36-.47-.72-.08-.58,.17-.84,.48,.04,.84,.04,.36,.34,.72,.34,.36,0,.72,0,.36-.07,.72-.07,.36-.59,.72-.59,.36,.71,.72,.71,.36-.14,.72-.14,.36-.37,.72-.37,.36,.17,.72,.17,.36,.27,.72,.27,.36,.05,.72,.05,.36-.56,.72-.56,.36,.5,.72,.5,.36-.47,.73-.47,.36,.67,.72,.67,.36-.29,.72-.29,.36-.19,.73-.19,.36,.14,.73,.14,.36-.57,.73-.57,.36,.85,.72,.85,.36-.58,.73-.58,.36,.14,.73,.14,.37-.32,.73-.32,.77-.19,1.03,.07-.31,.66-.31,1.02-.11,.35-.11,.71,.31,.35,.31,.71,.04,.35,.04,.71-.35,.35-.35,.71-.31,.35-.31,.71,.2,.35,.2,.7,.2,.35,.2,.7-.1,.35-.1,.71,.06,.35,.06,.71-.02,.36-.02,.71-.38,.35-.38,.71,.87,.35,.87,.71-.67,.35-.67,.71,.28,.36,.28,.71,.37,.36,.37,.71-.14,.36-.14,.71-.59,.36-.59,.71-.11,.36-.11,.71,.16,.36,.16,.71-.16,.35-.16,.71,.41,.36,.41,.71,.03,.36,.03,.71-.2,.36-.2,.72,.23,.21,.48,.47,.1,.32,.46,.32,.35-.52,.7-.52,.35,.9,.7,.9,.35-.08,.7-.08,.35-.46,.71-.46,.35,.52,.71,.52,.35-.3,.71-.3,.35,0,.71,0,.35-.23,.71-.23,.35,.31,.71,.31,.35,.26,.7,.26,.35-.12,.71-.12,.35,.03,.71,.03,.36-.16,.71-.16,.81-.84,1.06-.59-.25,.71-.25,1.06-.15,.36-.15,.71,.24,.36,.24,.72-.5,.36-.5,.71,.02,.36,.02,.71,.03,.36,.03,.71,.53,.36,.53,.72,.02,.36,.02,.72-.18,.36-.18,.72,.16,.36,.16,.72,.2,.36,.2,.72-.34,.36-.34,.72-.54,.36-.54,.71,.43,.36,.43,.72-.15,.36-.15,.72,.58,.36,.58,.72-.1,.58-.35,.84-.47-.01-.82-.01-.35-.54-.7-.54-.35,.56-.7,.56-.35,.23-.7,.23-.35-.71-.71-.71-.35,.68-.71,.68-.35-.63-.71-.63-.35,.28-.71,.28-.35,.39-.71,.39-.35-.05-.71-.05-.35-.63-.7-.63-.35,.32-.71,.32-.35,.13-.71,.13-.36-.26-.71-.26-.31,.02-.56,.27-.54,.2-.54,.56,.01,.36,.01,.71,.3,.36,.3,.71,.31,.36,.31,.71-.55,.36-.55,.71,.5,.36,.5,.71-.65,.36-.65,.72,.39,.36,.39,.72-.08,.36-.08,.72-.05,.36-.05,.72,0,.36,0,.72,.36,.36,.36,.72,.11,.36,.11,.72,.1,.36,.1,.72-.64,.36-.64,.72-.07,.36-.07,.72,.59,.36,.59,.72-.14,.36-.14,.72,.12,.36,.12,.72-.44,.36-.44,.72,.12,.36,.12,.72,.39,.36,.39,.72-.42,.36-.42,.72-.22,.36-.22,.72,.33,.36,.33,.72,.27,.36,.27,.72-.58,.36-.58,.72,.68,.36,.68,.72-.31,.36-.31,.72-.33,.36-.33,.72,.66,.36,.66,.72-.28,.36-.28,.72,0,.36,0,.72-.59,.36-.59,.72,.08,.36,.08,.72,.48,.36,.48,.72-.08,.36-.08,.72-.29,.36-.29,.72,.57,.36,.57,.72-.57,.36-.57,.72,.73,.36,.73,.72-.38,.36-.38,.72-.19,.36-.19,.72,.43,.36,.43,.72-.1,.36-.1,.72-.13,.36-.13,.72-.52,.36-.52,.72,0,.36,0,.72,.69,.36,.69,.73,.17,.36,.17,.73-.41,.36-.41,.73-.01,.36-.01,.73c0,.25,.23,.46,.26,.68,.03,.25-.25,.53-.19,.74,.06,.24,.32,.4,.43,.59,.11,.22,.16,.47,.32,.63s.55-.04,.76,.07c.18,.1,.24,.5,.5,.58,.21,.06,.4,.32,.65,.37,.22,.04,.5-.19,.75-.16,.22,.03,.46,.02,.72,.04,.23,.02,.46,.05,.71,.07,.23,.01,.47-.03,.72-.02,.23,0,.46,.54,.71,.55,.23,0,.48-.54,.73-.54,.36,0,.36,.21,.71,.21s.36,.13,.71,.13,.36-.34,.71-.34,.36,.39,.72,.39,.66-.69,.92-.44-.49,.56-.49,.91-.07,.36-.07,.71,.22,.36,.22,.71-.14,.36-.14,.72,.52,.36,.52,.71-.08,.36-.08,.71-.65,.36-.65,.71,.05,.36,.05,.72,.53,.36,.53,.72-.2,.36-.2,.72-.21,.36-.21,.72,.53,.36,.53,.72-.63,.36-.63,.72,.6,.36,.6,.72-.62,.36-.62,.72,.94,.36,.94,.72,.02,.52-.1,.86-.73,.1-.84,.45Z"/></g></g></g></svg>