<?xml version="1.0" encoding="UTF-8"?><svg xmlns="http://www.w3.org/2000/svg" viewBox="0 0 227.62 26.71"><g id="a"/><g id="b"><g id="c"><g><path d="M18.25,3.03c2.03,2.02,3.04,4.56,3.04,7.62s-1.01,5.58-3.03,7.61-4.56,3.03-7.62,3.03-5.6-1.01-7.61-3.03C1.01,16.24,0,13.7,0,10.65S1.01,5.05,3.03,3.03C5.05,1.01,7.59,0,10.64,0s5.59,1.01,7.61,3.03Zm-2.18,1.81c-1.44-1.55-3.25-2.32-5.43-2.32s-3.98,.77-5.41,2.32-2.16,3.48-2.16,5.81,.72,4.26,2.16,5.8c1.44,1.54,3.24,2.31,5.41,2.31s3.98-.77,5.42-2.31c1.44-1.54,2.16-3.48,2.16-5.8s-.72-4.26-2.16-5.81Zm0,7.43c-.26,1.37-.85,2.45-1.76,3.25s-2.01,1.2-3.29,1.2c-1.74,0-3.15-.55-4.21-1.65s-1.59-2.55-1.59-4.36,.52-3.37,1.57-4.48,2.46-1.66,4.24-1.66c1.39,0,2.54,.39,3.44,1.17,.91,.78,1.44,1.83,1.61,3.16h-2.51c-.07-.57-.34-1.03-.79-1.37-.46-.34-1.04-.51-1.75-.51-.91,0-1.63,.32-2.14,.97-.52,.65-.77,1.55-.77,2.7s.26,1.96,.79,2.61,1.23,.96,2.13,.96c.67,0,1.23-.18,1.68-.54,.46-.36,.74-.85,.86-1.46h2.51Z"/><path d="M27.06,5.82h3.93V22.34c0,1.62-.35,2.75-1.05,3.4s-1.91,.97-3.63,.97h-1.07v-3.15h.48c.53,.01,.88-.07,1.07-.24,.18-.17,.27-.5,.27-.98V5.82Zm-.03-5.38h4v3.64h-4V.44Z"/><path d="M34.18,19c-1.37-1.4-2.06-3.28-2.06-5.65s.69-4.36,2.06-5.78c1.37-1.43,3.22-2.14,5.55-2.14s4.2,.71,5.57,2.14c1.37,1.43,2.05,3.36,2.05,5.78s-.68,4.26-2.05,5.65-3.23,2.09-5.57,2.09-4.18-.7-5.55-2.09Zm8.22-2.34c.61-.77,.92-1.88,.92-3.35s-.31-2.65-.92-3.43c-.61-.78-1.5-1.17-2.67-1.17s-2.06,.39-2.66,1.17c-.61,.78-.91,1.92-.91,3.43s.3,2.59,.91,3.35c.61,.77,1.49,1.15,2.66,1.15s2.06-.38,2.67-1.15Z"/><path d="M48.31,5.82h3.74v2.2c.15-.26,.32-.52,.51-.75,.97-1.23,2.37-1.85,4.22-1.85,1.57,0,2.8,.46,3.69,1.4,.89,.93,1.33,2.22,1.33,3.87v10.02h-3.93V11.4c0-.92-.2-1.6-.6-2.05s-1.01-.66-1.83-.66c-1.03,0-1.82,.31-2.38,.93-.55,.62-.83,1.52-.83,2.68v8.41h-3.93V5.82Z"/><path d="M67.22,21.1c-1.38,0-2.49-.4-3.33-1.18-.84-.79-1.26-1.83-1.26-3.11,0-1.36,.38-2.45,1.14-3.27,.76-.82,1.86-1.33,3.31-1.54l2.59-.36c.68-.09,1.24-.25,1.68-.46,.19-.09,.34-.26,.44-.49s.14-.48,.12-.73c-.05-.42-.27-.75-.64-.99-.45-.28-1.09-.42-1.93-.42-.75,0-1.33,.18-1.75,.55s-.64,.88-.67,1.55h-3.76c.08-1.74,.68-3.05,1.78-3.92,1.1-.87,2.72-1.3,4.86-1.3,1.85,0,3.32,.39,4.39,1.17,1.07,.78,1.61,1.85,1.61,3.2v8.33c0,.67,.05,1.14,.16,1.41,.11,.27,.33,.48,.66,.64h0v.55h-4.24c-.17-.62-.29-1.21-.34-1.78v-.03c-1.25,1.46-2.84,2.19-4.81,2.19Zm4.72-5.89v-1.71c-.46,.26-1.06,.46-1.81,.62l-1.45,.27c-.68,.13-1.2,.36-1.56,.71-.36,.34-.53,.77-.53,1.29,0,.59,.16,1.06,.48,1.4,.32,.34,.77,.51,1.34,.51,1.26,0,2.26-.44,3.01-1.33,.15-.17,.27-.43,.37-.77,.1-.34,.15-.67,.15-.99Z"/><path d="M77.44,.59h3.93V7.71l.31-.44c.97-1.23,2.37-1.85,4.22-1.85,1.57,0,2.8,.46,3.69,1.4,.89,.93,1.33,2.22,1.33,3.87v10.02h-3.93V11.4c0-.92-.2-1.6-.6-2.05s-1.01-.66-1.83-.66c-1.03,0-1.82,.31-2.38,.93-.55,.62-.83,1.52-.83,2.68v8.41h-3.93V.59Z"/><path d="M98.88,.59h3.93V11.46l4.9-5.64h4.85l-5.38,5.65,5.52,9.25h-4.67l-3.59-6.42-1.62,1.72v4.7h-3.93V.59Z"/><path d="M113.77,19c-1.37-1.4-2.06-3.28-2.06-5.65s.69-4.36,2.06-5.78c1.37-1.43,3.22-2.14,5.55-2.14s4.2,.71,5.57,2.14c1.37,1.43,2.05,3.36,2.05,5.78s-.68,4.26-2.05,5.65-3.23,2.09-5.57,2.09-4.18-.7-5.55-2.09Zm8.22-2.34c.61-.77,.92-1.88,.92-3.35s-.31-2.65-.92-3.43c-.61-.78-1.5-1.17-2.67-1.17s-2.06,.39-2.66,1.17c-.61,.78-.91,1.92-.91,3.43s.3,2.59,.91,3.35c.61,.77,1.49,1.15,2.66,1.15s2.06-.38,2.67-1.15Z"/><path d="M130.68,20.71l-4.33-14.9h4.16l2.38,10.94h.02l2.22-10.94h3.93l2.2,10.97,2.42-10.97h3.96l-4.31,14.9h-4.01l-2.29-11.09h0l-2.35,11.09h-4.01Z"/><path d="M151.49,21.1c-1.38,0-2.49-.4-3.33-1.18-.84-.79-1.26-1.83-1.26-3.11,0-1.36,.38-2.45,1.14-3.27,.76-.82,1.86-1.33,3.31-1.54l2.59-.36c.68-.09,1.24-.25,1.68-.46,.19-.09,.34-.26,.44-.49s.14-.48,.12-.73c-.05-.42-.27-.75-.64-.99-.45-.28-1.09-.42-1.93-.42-.75,0-1.33,.18-1.75,.55s-.64,.88-.67,1.55h-3.76c.08-1.74,.68-3.05,1.78-3.92,1.1-.87,2.72-1.3,4.86-1.3,1.85,0,3.32,.39,4.39,1.17,1.07,.78,1.61,1.85,1.61,3.2v8.33c0,.67,.05,1.14,.16,1.41,.11,.27,.33,.48,.66,.64h0v.55h-4.24c-.17-.62-.29-1.21-.34-1.78v-.03c-1.25,1.46-2.84,2.19-4.81,2.19Zm4.72-5.89v-1.71c-.46,.26-1.06,.46-1.81,.62l-1.45,.27c-.68,.13-1.2,.36-1.56,.71-.36,.34-.53,.77-.53,1.29,0,.59,.16,1.06,.48,1.4,.32,.34,.77,.51,1.34,.51,1.26,0,2.26-.44,3.01-1.33,.15-.17,.27-.43,.37-.77,.1-.34,.15-.67,.15-.99Z"/><path d="M161.83,.59h3.93V20.71h-3.93V.59Z"/><path d="M186.22,7.02c0,1.51-.35,2.77-1.06,3.76s-2.03,2.11-3.98,3.35c-1.8,1.14-3.03,2.17-3.68,3.09v.03h8.72v3.45h-13.61c0-1.83,.46-3.39,1.38-4.7s2.66-2.85,5.2-4.64c1.14-.79,1.94-1.52,2.41-2.18,.47-.66,.7-1.4,.7-2.21,0-.89-.26-1.6-.77-2.14-.51-.54-1.19-.81-2.03-.81-.89,0-1.59,.34-2.09,1.01-.5,.68-.73,1.59-.7,2.75h-3.85c-.06-2.16,.5-3.88,1.7-5.15,1.2-1.27,2.85-1.9,4.96-1.9,1.96,0,3.57,.58,4.82,1.75,1.24,1.17,1.86,2.67,1.86,4.52Z"/><path d="M188.29,18.75c-1.12-1.66-1.69-4.21-1.7-7.65,0-3.52,.57-6.13,1.7-7.82s2.85-2.53,5.19-2.53,4.09,.84,5.22,2.53c1.12,1.69,1.68,4.26,1.68,7.72v.1c0,3.44-.55,5.99-1.68,7.65-1.13,1.66-2.87,2.49-5.22,2.49s-4.07-.83-5.19-2.49Zm7.41-2.27c.43-1.05,.64-2.85,.64-5.41,0-2.62-.2-4.46-.64-5.54s-1.18-1.61-2.22-1.61-1.77,.54-2.2,1.61-.64,2.92-.65,5.54c0,2.56,.21,4.36,.64,5.41,.43,1.05,1.16,1.57,2.2,1.57s1.79-.52,2.22-1.57Z"/><path d="M213.82,7.02c0,1.51-.35,2.77-1.06,3.76s-2.03,2.11-3.98,3.35c-1.8,1.14-3.03,2.17-3.68,3.09v.03h8.72v3.45h-13.61c0-1.83,.46-3.39,1.38-4.7s2.66-2.85,5.2-4.64c1.14-.79,1.94-1.52,2.41-2.18,.47-.66,.7-1.4,.7-2.21,0-.89-.26-1.6-.77-2.14-.51-.54-1.19-.81-2.03-.81-.89,0-1.59,.34-2.09,1.01-.5,.68-.73,1.59-.7,2.75h-3.85c-.06-2.16,.5-3.88,1.7-5.15,1.2-1.27,2.85-1.9,4.96-1.9,1.96,0,3.57,.58,4.82,1.75,1.24,1.17,1.86,2.67,1.86,4.52Z"/><path d="M227.62,7.02c0,1.51-.35,2.77-1.06,3.76s-2.03,2.11-3.98,3.35c-1.8,1.14-3.03,2.17-3.68,3.09v.03h8.72v3.45h-13.61c0-1.83,.46-3.39,1.38-4.7s2.66-2.85,5.2-4.64c1.14-.79,1.94-1.52,2.41-2.18,.47-.66,.7-1.4,.7-2.21,0-.89-.26-1.6-.77-2.14-.51-.54-1.19-.81-2.03-.81-.89,0-1.59,.34-2.09,1.01-.5,.68-.73,1.59-.7,2.75h-3.85c-.06-2.16,.5-3.88,1.7-5.15,1.2-1.27,2.85-1.9,4.96-1.9,1.96,0,3.57,.58,4.82,1.75,1.24,1.17,1.86,2.67,1.86,4.52Z"/></g></g></g></svg>