<?xml version="1.0" encoding="UTF-8" standalone="no"?>
<svg
   viewBox="0 0 228.63762 26.71"
   version="1.1"
   id="svg15"
   sodipodi:docname="copyright-text.svg"
   width="228.63762"
   height="26.709999"
   inkscape:version="1.3.2 (091e20e, 2023-11-25, custom)"
   xmlns:inkscape="http://www.inkscape.org/namespaces/inkscape"
   xmlns:sodipodi="http://sodipodi.sourceforge.net/DTD/sodipodi-0.dtd"
   xmlns="http://www.w3.org/2000/svg"
   xmlns:svg="http://www.w3.org/2000/svg">
  <defs
     id="defs15" />
  <sodipodi:namedview
     id="namedview15"
     pagecolor="#ffffff"
     bordercolor="#999999"
     borderopacity="1"
     inkscape:showpageshadow="2"
     inkscape:pageopacity="0"
     inkscape:pagecheckerboard="0"
     inkscape:deskcolor="#d1d1d1"
     inkscape:zoom="3.491732"
     inkscape:cx="89.353937"
     inkscape:cy="40.810692"
     inkscape:window-width="1920"
     inkscape:window-height="1017"
     inkscape:window-x="-8"
     inkscape:window-y="-8"
     inkscape:window-maximized="1"
     inkscape:current-layer="svg15" />
  <g
     id="a" />
  <g
     id="b">
    <g
       id="c">
      <g
         id="g15">
        <path
           d="m 18.25,3.03 c 2.03,2.02 3.04,4.56 3.04,7.62 0,3.06 -1.01,5.58 -3.03,7.61 -2.02,2.03 -4.56,3.03 -7.62,3.03 -3.06,0 -5.6,-1.01 -7.61,-3.03 C 1.01,16.24 0,13.7 0,10.65 0,7.6 1.01,5.05 3.03,3.03 5.05,1.01 7.59,0 10.64,0 c 3.05,0 5.59,1.01 7.61,3.03 z M 16.07,4.84 C 14.63,3.29 12.82,2.52 10.64,2.52 8.46,2.52 6.66,3.29 5.23,4.84 3.8,6.39 3.07,8.32 3.07,10.65 c 0,2.33 0.72,4.26 2.16,5.8 1.44,1.54 3.24,2.31 5.41,2.31 2.17,0 3.98,-0.77 5.42,-2.31 1.44,-1.54 2.16,-3.48 2.16,-5.8 0,-2.32 -0.72,-4.26 -2.16,-5.81 z m 0,7.43 c -0.26,1.37 -0.85,2.45 -1.76,3.25 -0.91,0.8 -2.01,1.2 -3.29,1.2 -1.74,0 -3.15,-0.55 -4.21,-1.65 C 5.75,13.97 5.22,12.52 5.22,10.71 5.22,8.9 5.74,7.34 6.79,6.23 7.84,5.12 9.25,4.57 11.03,4.57 c 1.39,0 2.54,0.39 3.44,1.17 0.91,0.78 1.44,1.83 1.61,3.16 H 13.57 C 13.5,8.33 13.23,7.87 12.78,7.53 12.32,7.19 11.74,7.02 11.03,7.02 10.12,7.02 9.4,7.34 8.89,7.99 8.37,8.64 8.12,9.54 8.12,10.69 c 0,1.15 0.26,1.96 0.79,2.61 0.53,0.65 1.23,0.96 2.13,0.96 0.67,0 1.23,-0.18 1.68,-0.54 0.46,-0.36 0.74,-0.85 0.86,-1.46 h 2.51 z"
           id="path1" />
        <path
           d="m 27.06,5.82 h 3.93 v 16.52 c 0,1.62 -0.35,2.75 -1.05,3.4 -0.7,0.65 -1.91,0.97 -3.63,0.97 h -1.07 v -3.15 h 0.48 c 0.53,0.01 0.88,-0.07 1.07,-0.24 0.18,-0.17 0.27,-0.5 0.27,-0.98 z M 27.03,0.44 h 4 v 3.64 h -4 z"
           id="path2" />
        <path
           d="m 34.18,19 c -1.37,-1.4 -2.06,-3.28 -2.06,-5.65 0,-2.37 0.69,-4.36 2.06,-5.78 1.37,-1.43 3.22,-2.14 5.55,-2.14 2.33,0 4.2,0.71 5.57,2.14 1.37,1.43 2.05,3.36 2.05,5.78 0,2.42 -0.68,4.26 -2.05,5.65 -1.37,1.39 -3.23,2.09 -5.57,2.09 -2.34,0 -4.18,-0.7 -5.55,-2.09 z m 8.22,-2.34 c 0.61,-0.77 0.92,-1.88 0.92,-3.35 0,-1.47 -0.31,-2.65 -0.92,-3.43 -0.61,-0.78 -1.5,-1.17 -2.67,-1.17 -1.17,0 -2.06,0.39 -2.66,1.17 -0.61,0.78 -0.91,1.92 -0.91,3.43 0,1.51 0.3,2.59 0.91,3.35 0.61,0.77 1.49,1.15 2.66,1.15 1.17,0 2.06,-0.38 2.67,-1.15 z"
           id="path3" />
        <path
           d="m 48.31,5.82 h 3.74 v 2.2 c 0.15,-0.26 0.32,-0.52 0.51,-0.75 0.97,-1.23 2.37,-1.85 4.22,-1.85 1.57,0 2.8,0.46 3.69,1.4 0.89,0.93 1.33,2.22 1.33,3.87 V 20.71 H 57.87 V 11.4 c 0,-0.92 -0.2,-1.6 -0.6,-2.05 -0.4,-0.45 -1.01,-0.66 -1.83,-0.66 -1.03,0 -1.82,0.31 -2.38,0.93 -0.55,0.62 -0.83,1.52 -0.83,2.68 v 8.41 H 48.3 V 5.82 Z"
           id="path4" />
        <path
           d="m 67.22,21.1 c -1.38,0 -2.49,-0.4 -3.33,-1.18 -0.84,-0.79 -1.26,-1.83 -1.26,-3.11 0,-1.36 0.38,-2.45 1.14,-3.27 0.76,-0.82 1.86,-1.33 3.31,-1.54 l 2.59,-0.36 c 0.68,-0.09 1.24,-0.25 1.68,-0.46 0.19,-0.09 0.34,-0.26 0.44,-0.49 0.1,-0.23 0.14,-0.48 0.12,-0.73 C 71.86,9.54 71.64,9.21 71.27,8.97 70.82,8.69 70.18,8.55 69.34,8.55 c -0.75,0 -1.33,0.18 -1.75,0.55 -0.42,0.37 -0.64,0.88 -0.67,1.55 h -3.76 c 0.08,-1.74 0.68,-3.05 1.78,-3.92 1.1,-0.87 2.72,-1.3 4.86,-1.3 1.85,0 3.32,0.39 4.39,1.17 1.07,0.78 1.61,1.85 1.61,3.2 v 8.33 c 0,0.67 0.05,1.14 0.16,1.41 0.11,0.27 0.33,0.48 0.66,0.64 v 0 0.55 h -4.24 c -0.17,-0.62 -0.29,-1.21 -0.34,-1.78 v -0.03 c -1.25,1.46 -2.84,2.19 -4.81,2.19 z m 4.72,-5.89 V 13.5 c -0.46,0.26 -1.06,0.46 -1.81,0.62 l -1.45,0.27 c -0.68,0.13 -1.2,0.36 -1.56,0.71 -0.36,0.34 -0.53,0.77 -0.53,1.29 0,0.59 0.16,1.06 0.48,1.4 0.32,0.34 0.77,0.51 1.34,0.51 1.26,0 2.26,-0.44 3.01,-1.33 0.15,-0.17 0.27,-0.43 0.37,-0.77 0.1,-0.34 0.15,-0.67 0.15,-0.99 z"
           id="path5" />
        <path
           d="m 77.44,0.59 h 3.93 v 7.12 l 0.31,-0.44 c 0.97,-1.23 2.37,-1.85 4.22,-1.85 1.57,0 2.8,0.46 3.69,1.4 0.89,0.93 1.33,2.22 1.33,3.87 V 20.71 H 86.99 V 11.4 c 0,-0.92 -0.2,-1.6 -0.6,-2.05 -0.4,-0.45 -1.01,-0.66 -1.83,-0.66 -1.03,0 -1.82,0.31 -2.38,0.93 -0.55,0.62 -0.83,1.52 -0.83,2.68 v 8.41 H 77.42 V 0.59 Z"
           id="path6" />
        <path
           d="m 98.88,0.59 h 3.93 v 10.87 l 4.9,-5.64 h 4.85 l -5.38,5.65 5.52,9.25 h -4.67 l -3.59,-6.42 -1.62,1.72 v 4.7 H 98.89 V 0.59 Z"
           id="path7" />
        <path
           d="m 113.77,19 c -1.37,-1.4 -2.06,-3.28 -2.06,-5.65 0,-2.37 0.69,-4.36 2.06,-5.78 1.37,-1.43 3.22,-2.14 5.55,-2.14 2.33,0 4.2,0.71 5.57,2.14 1.37,1.43 2.05,3.36 2.05,5.78 0,2.42 -0.68,4.26 -2.05,5.65 -1.37,1.39 -3.23,2.09 -5.57,2.09 -2.34,0 -4.18,-0.7 -5.55,-2.09 z m 8.22,-2.34 c 0.61,-0.77 0.92,-1.88 0.92,-3.35 0,-1.47 -0.31,-2.65 -0.92,-3.43 -0.61,-0.78 -1.5,-1.17 -2.67,-1.17 -1.17,0 -2.06,0.39 -2.66,1.17 -0.61,0.78 -0.91,1.92 -0.91,3.43 0,1.51 0.3,2.59 0.91,3.35 0.61,0.77 1.49,1.15 2.66,1.15 1.17,0 2.06,-0.38 2.67,-1.15 z"
           id="path8" />
        <path
           d="m 130.68,20.71 -4.33,-14.9 h 4.16 l 2.38,10.94 h 0.02 l 2.22,-10.94 h 3.93 l 2.2,10.97 2.42,-10.97 h 3.96 l -4.31,14.9 h -4.01 L 137.03,9.62 v 0 l -2.35,11.09 h -4.01 z"
           id="path9" />
        <path
           d="m 151.49,21.1 c -1.38,0 -2.49,-0.4 -3.33,-1.18 -0.84,-0.79 -1.26,-1.83 -1.26,-3.11 0,-1.36 0.38,-2.45 1.14,-3.27 0.76,-0.82 1.86,-1.33 3.31,-1.54 l 2.59,-0.36 c 0.68,-0.09 1.24,-0.25 1.68,-0.46 0.19,-0.09 0.34,-0.26 0.44,-0.49 0.1,-0.23 0.14,-0.48 0.12,-0.73 -0.05,-0.42 -0.27,-0.75 -0.64,-0.99 -0.45,-0.28 -1.09,-0.42 -1.93,-0.42 -0.75,0 -1.33,0.18 -1.75,0.55 -0.42,0.37 -0.64,0.88 -0.67,1.55 h -3.76 c 0.08,-1.74 0.68,-3.05 1.78,-3.92 1.1,-0.87 2.72,-1.3 4.86,-1.3 1.85,0 3.32,0.39 4.39,1.17 1.07,0.78 1.61,1.85 1.61,3.2 v 8.33 c 0,0.67 0.05,1.14 0.16,1.41 0.11,0.27 0.33,0.48 0.66,0.64 v 0 0.55 h -4.24 c -0.17,-0.62 -0.29,-1.21 -0.34,-1.78 v -0.03 c -1.25,1.46 -2.84,2.19 -4.81,2.19 z m 4.72,-5.89 V 13.5 c -0.46,0.26 -1.06,0.46 -1.81,0.62 l -1.45,0.27 c -0.68,0.13 -1.2,0.36 -1.56,0.71 -0.36,0.34 -0.53,0.77 -0.53,1.29 0,0.59 0.16,1.06 0.48,1.4 0.32,0.34 0.77,0.51 1.34,0.51 1.26,0 2.26,-0.44 3.01,-1.33 0.15,-0.17 0.27,-0.43 0.37,-0.77 0.1,-0.34 0.15,-0.67 0.15,-0.99 z"
           id="path10" />
        <path
           d="m 161.83,0.59 h 3.93 v 20.12 h -3.93 z"
           id="path11" />
        <path
           d="m 186.22,7.02 c 0,1.51 -0.35,2.77 -1.06,3.76 -0.71,0.99 -2.03,2.11 -3.98,3.35 -1.8,1.14 -3.03,2.17 -3.68,3.09 v 0.03 h 8.72 v 3.45 h -13.61 c 0,-1.83 0.46,-3.39 1.38,-4.7 0.92,-1.31 2.66,-2.85 5.2,-4.64 1.14,-0.79 1.94,-1.52 2.41,-2.18 0.47,-0.66 0.7,-1.4 0.7,-2.21 0,-0.89 -0.26,-1.6 -0.77,-2.14 -0.51,-0.54 -1.19,-0.81 -2.03,-0.81 -0.89,0 -1.59,0.34 -2.09,1.01 -0.5,0.68 -0.73,1.59 -0.7,2.75 h -3.85 c -0.06,-2.16 0.5,-3.88 1.7,-5.15 1.2,-1.27 2.85,-1.9 4.96,-1.9 1.96,0 3.57,0.58 4.82,1.75 1.24,1.17 1.86,2.67 1.86,4.52 z"
           id="path12" />
        <path
           d="m 188.29,18.75 c -1.12,-1.66 -1.69,-4.21 -1.7,-7.65 0,-3.52 0.57,-6.13 1.7,-7.82 1.13,-1.69 2.85,-2.53 5.19,-2.53 2.34,0 4.09,0.84 5.22,2.53 1.12,1.69 1.68,4.26 1.68,7.72 v 0.1 c 0,3.44 -0.55,5.99 -1.68,7.65 -1.13,1.66 -2.87,2.49 -5.22,2.49 -2.35,0 -4.07,-0.83 -5.19,-2.49 z m 7.41,-2.27 c 0.43,-1.05 0.64,-2.85 0.64,-5.41 0,-2.62 -0.2,-4.46 -0.64,-5.54 -0.44,-1.08 -1.18,-1.61 -2.22,-1.61 -1.04,0 -1.77,0.54 -2.2,1.61 -0.43,1.07 -0.64,2.92 -0.65,5.54 0,2.56 0.21,4.36 0.64,5.41 0.43,1.05 1.16,1.57 2.2,1.57 1.04,0 1.79,-0.52 2.22,-1.57 z"
           id="path13" />
        <path
           d="m 213.82,7.02 c 0,1.51 -0.35,2.77 -1.06,3.76 -0.71,0.99 -2.03,2.11 -3.98,3.35 -1.8,1.14 -3.03,2.17 -3.68,3.09 v 0.03 h 8.72 v 3.45 h -13.61 c 0,-1.83 0.46,-3.39 1.38,-4.7 0.92,-1.31 2.66,-2.85 5.2,-4.64 1.14,-0.79 1.94,-1.52 2.41,-2.18 0.47,-0.66 0.7,-1.4 0.7,-2.21 0,-0.89 -0.26,-1.6 -0.77,-2.14 -0.51,-0.54 -1.19,-0.81 -2.03,-0.81 -0.89,0 -1.59,0.34 -2.09,1.01 -0.5,0.68 -0.73,1.59 -0.7,2.75 h -3.85 c -0.06,-2.16 0.5,-3.88 1.7,-5.15 1.2,-1.27 2.85,-1.9 4.96,-1.9 1.96,0 3.57,0.58 4.82,1.75 1.24,1.17 1.86,2.67 1.86,4.52 z"
           id="path14" />
      </g>
    </g>
  </g>
  <path
     style="font-weight:bold;font-size:28px;font-family:Helvetica;-inkscape-font-specification:'Helvetica Bold';stroke-width:3.02362"
     d="m 228.10432,16.44091 h -2.24218 v 4.265625 h -3.81446 V 16.44091 h -7.84765 v -3.404297 l 7.28711,-12.0312495 h 4.375 V 13.392082 h 2.24218 z m -6.05664,-3.048828 V 4.8334885 l -4.96289,8.5585935 z"
     id="text15"
     aria-label="4" />
</svg>
